<svg width="272" height="186" viewBox="0 0 272 186" fill="none" xmlns="http://www.w3.org/2000/svg">
<path d="M74.409 32.8647C54.7057 32.8647 36.1781 31.2251 22.2394 28.2479C8.14447 25.2372 0.38208 21.1634 0.38208 16.7766C0.38208 12.3898 8.14447 8.316 22.2394 5.30533C36.1781 2.32812 54.7057 0.688538 74.409 0.688538C94.1123 0.688538 112.64 2.32812 126.579 5.30533C140.674 8.316 148.436 12.3898 148.436 16.7766C148.436 21.1634 140.674 25.2372 126.579 28.2479C112.64 31.2251 94.1123 32.8647 74.409 32.8647ZM74.409 1.39161C54.7537 1.39161 36.2782 3.02565 22.3861 5.99295C8.84893 8.88436 1.08515 12.8147 1.08515 16.7764C1.08515 20.7381 8.84893 24.6684 22.3861 27.5598C36.2782 30.5271 54.7534 32.1612 74.409 32.1612C94.0646 32.1612 112.54 30.5271 126.432 27.5598C139.969 24.6684 147.733 20.7381 147.733 16.7764C147.733 12.8147 139.969 8.88436 126.432 5.99295C112.54 3.02588 94.0646 1.39161 74.409 1.39161Z" fill="#231F20"/>
<path d="M74.409 48.6012C54.7057 48.6012 36.1781 46.9617 22.2391 43.9844C8.14447 40.9738 0.38208 36.9 0.38208 32.5132C0.38208 28.1263 8.14447 24.0525 22.2394 21.0419C36.1781 18.0647 54.7057 16.4251 74.409 16.4251C94.1123 16.4251 112.64 18.0647 126.579 21.0419C140.674 24.0525 148.436 28.1263 148.436 32.5132C148.436 36.9 140.674 40.974 126.579 43.9844C112.64 46.9617 94.1126 48.6012 74.409 48.6012ZM74.409 17.1282C54.7537 17.1282 36.2782 18.7622 22.3861 21.7295C8.84893 24.6209 1.08515 28.5512 1.08515 32.5129C1.08515 36.4746 8.84893 40.405 22.3861 43.2966C36.278 46.2639 54.7534 47.8979 74.409 47.8979C94.0646 47.8979 112.54 46.2639 126.432 43.2966C139.969 40.4052 147.733 36.4746 147.733 32.5129C147.733 28.5512 139.969 24.6209 126.432 21.7295C112.54 18.7622 94.0646 17.1282 74.409 17.1282Z" fill="#231F20"/>
<path d="M74.409 64.3375C54.7057 64.3375 36.1781 62.6979 22.2394 59.7207C8.14447 56.7101 0.38208 52.6363 0.38208 48.2495C0.38208 43.8626 8.14447 39.7886 22.2391 36.7782C36.1781 33.801 54.7055 32.1614 74.409 32.1614C94.1126 32.1614 112.64 33.801 126.579 36.7782C140.674 39.7888 148.436 43.8626 148.436 48.2495C148.436 52.6363 140.674 56.7101 126.579 59.7207C112.64 62.6979 94.1123 64.3375 74.409 64.3375ZM74.409 32.8647C54.7537 32.8647 36.278 34.4987 22.3861 37.466C8.84893 40.3574 1.08515 44.288 1.08515 48.2497C1.08515 52.2114 8.84893 56.1417 22.3861 59.0331C36.2782 62.0004 54.7534 63.6345 74.409 63.6345C94.0646 63.6345 112.54 62.0004 126.432 59.0331C139.969 56.1417 147.733 52.2114 147.733 48.2497C147.733 44.288 139.969 40.3577 126.432 37.466C112.54 34.4987 94.0646 32.8647 74.409 32.8647Z" fill="#231F20"/>
<path d="M74.409 80.0741C54.7057 80.0741 36.1781 78.4345 22.2394 75.4573C8.14447 72.4466 0.38208 68.3728 0.38208 63.986C0.38208 59.5992 8.14447 55.5254 22.2394 52.5147C36.1781 49.5375 54.7057 47.8979 74.409 47.8979C94.1123 47.8979 112.64 49.5375 126.579 52.5147C140.674 55.5254 148.436 59.5992 148.436 63.986C148.436 68.3728 140.674 72.4466 126.579 75.4573C112.64 78.4345 94.1123 80.0741 74.409 80.0741ZM74.409 48.6012C54.7537 48.6012 36.2782 50.2353 22.3861 53.2026C8.84893 56.094 1.08515 60.0243 1.08515 63.986C1.08515 67.9477 8.84893 71.8781 22.3861 74.7695C36.2782 77.7368 54.7534 79.3708 74.409 79.3708C94.0646 79.3708 112.54 77.7368 126.432 74.7695C139.969 71.8781 147.733 67.9477 147.733 63.986C147.733 60.0243 139.969 56.094 126.432 53.2026C112.54 50.2353 94.0646 48.6012 74.409 48.6012Z" fill="#231F20"/>
<path d="M74.409 95.8106C54.7057 95.8106 36.1781 94.171 22.2394 91.1936C8.14447 88.1832 0.38208 84.1093 0.38208 79.7225C0.38208 75.3357 8.14447 71.2619 22.2394 68.2513C36.1781 65.274 54.7057 63.6345 74.409 63.6345C94.1123 63.6345 112.64 65.274 126.579 68.2513C140.674 71.2619 148.436 75.3357 148.436 79.7225C148.436 84.1093 140.674 88.1832 126.579 91.1936C112.64 94.1708 94.1123 95.8106 74.409 95.8106ZM74.409 64.3375C54.7537 64.3375 36.2782 65.9716 22.3861 68.9389C8.84893 71.8303 1.08515 75.7606 1.08515 79.7223C1.08515 83.684 8.84893 87.6143 22.3861 90.5057C36.2782 93.4728 54.7534 95.1071 74.409 95.1071C94.0646 95.1071 112.54 93.4728 126.432 90.5057C139.969 87.6143 147.733 83.684 147.733 79.7223C147.733 75.7606 139.969 71.8303 126.432 68.9389C112.54 65.9718 94.0646 64.3375 74.409 64.3375Z" fill="#231F20"/>
<path d="M74.409 111.547C54.7057 111.547 36.1781 109.907 22.2394 106.93C8.14447 103.919 0.38208 99.8454 0.38208 95.4589C0.38208 91.0723 8.14447 86.9982 22.2394 83.9876C36.1781 81.0104 54.7057 79.3708 74.409 79.3708C94.1123 79.3708 112.64 81.0104 126.579 83.9876C140.674 86.9982 148.436 91.072 148.436 95.4589C148.436 99.8457 140.674 103.92 126.579 106.93C112.64 109.907 94.1123 111.547 74.409 111.547ZM74.409 80.0741C54.7537 80.0741 36.2782 81.7081 22.3861 84.6754C8.84893 87.5668 1.08515 91.4972 1.08515 95.4589C1.08515 99.4206 8.84893 103.351 22.3861 106.242C36.2782 109.209 54.7534 110.844 74.409 110.844C94.0646 110.844 112.54 109.209 126.432 106.242C139.969 103.351 147.733 99.4206 147.733 95.4589C147.733 91.4972 139.969 87.5668 126.432 84.6754C112.54 81.7084 94.0646 80.0741 74.409 80.0741Z" fill="#231F20"/>
<path d="M74.409 127.283C54.7057 127.283 36.1781 125.644 22.2394 122.666C8.14447 119.656 0.38208 115.582 0.38208 111.195C0.38208 106.809 8.14447 102.735 22.2394 99.7244C36.1781 96.7471 54.7057 95.1073 74.409 95.1073C94.1123 95.1073 112.64 96.7469 126.579 99.7244C140.674 102.735 148.436 106.809 148.436 111.195C148.436 115.582 140.674 119.656 126.579 122.666C112.64 125.644 94.1123 127.283 74.409 127.283ZM74.409 95.8106C54.7537 95.8106 36.2782 97.4449 22.3861 100.412C8.84893 103.303 1.08515 107.234 1.08515 111.195C1.08515 115.157 8.84893 119.087 22.3861 121.979C36.2782 124.946 54.7534 126.58 74.409 126.58C94.0646 126.58 112.54 124.946 126.432 121.979C139.969 119.087 147.733 115.157 147.733 111.195C147.733 107.234 139.969 103.303 126.432 100.412C112.54 97.4449 94.0646 95.8106 74.409 95.8106Z" fill="#231F20"/>
<path d="M74.409 143.02C54.7057 143.02 36.1781 141.38 22.2394 138.403C8.14447 135.393 0.38208 131.319 0.38208 126.932C0.38208 122.545 8.14447 118.471 22.2394 115.461C36.1781 112.484 54.7057 110.844 74.409 110.844C94.1123 110.844 112.64 112.483 126.579 115.461C140.674 118.471 148.436 122.545 148.436 126.932C148.436 131.319 140.674 135.393 126.579 138.403C112.64 141.38 94.1123 143.02 74.409 143.02ZM74.409 111.547C54.7537 111.547 36.2782 113.181 22.3861 116.148C8.84893 119.04 1.08515 122.97 1.08515 126.932C1.08515 130.893 8.84893 134.824 22.3861 137.715C36.2782 140.682 54.7534 142.316 74.409 142.316C94.0646 142.316 112.54 140.682 126.432 137.715C139.969 134.824 147.733 130.893 147.733 126.932C147.733 122.97 139.969 119.04 126.432 116.148C112.54 113.181 94.0646 111.547 74.409 111.547ZM197.579 148.309H271.266V149.013H197.579V148.309Z" fill="#231F20"/>
<path d="M234.071 111.818H234.774V185.505H234.071V111.818Z" fill="#231F20"/>
<path d="M234.703 185.716L234.142 185.293C234.264 185.131 246.352 168.86 246.352 148.661C246.352 128.462 234.264 112.191 234.142 112.029L234.703 111.606C234.827 111.769 247.055 128.22 247.055 148.661C247.055 169.102 234.827 185.553 234.703 185.716Z" fill="#231F20"/>
<path d="M234.423 185.856C213.913 185.856 197.228 169.171 197.228 148.661C197.228 128.152 213.913 111.466 234.423 111.466C254.932 111.466 271.618 128.152 271.618 148.661C271.618 169.171 254.932 185.856 234.423 185.856ZM234.423 112.169C214.301 112.169 197.931 128.54 197.931 148.661C197.931 168.783 214.301 185.153 234.423 185.153C254.545 185.153 270.915 168.783 270.915 148.661C270.915 128.54 254.545 112.169 234.423 112.169Z" fill="#231F20"/>
<path d="M234.534 185.838L234.311 185.171C234.372 185.151 240.472 183.065 246.488 177.538C252.029 172.448 258.633 163.306 258.633 148.661C258.633 134.003 252.017 124.856 246.466 119.764C240.45 114.246 234.372 112.172 234.311 112.151L234.534 111.484C234.596 111.505 240.817 113.628 246.942 119.246C252.596 124.433 259.337 133.747 259.337 148.661C259.337 163.575 252.596 172.889 246.942 178.076C240.817 183.695 234.596 185.817 234.534 185.838Z" fill="#231F20"/>
<path d="M234.142 185.716C234.019 185.553 221.79 169.102 221.79 148.661C221.79 128.22 234.019 111.769 234.142 111.606L234.704 112.029C234.582 112.191 222.493 128.462 222.493 148.661C222.493 168.86 234.581 185.131 234.704 185.293L234.142 185.716Z" fill="#231F20"/>
<path d="M234.311 185.838C234.249 185.817 228.029 183.695 221.904 178.077C216.249 172.89 209.509 163.576 209.509 148.661C209.509 133.747 216.249 124.433 221.904 119.247C228.029 113.628 234.249 111.505 234.311 111.485L234.534 112.152C234.473 112.172 228.373 114.258 222.357 119.785C216.817 124.875 210.212 134.017 210.212 148.662C210.212 163.321 216.829 172.467 222.379 177.558C228.395 183.077 234.473 185.151 234.534 185.172L234.311 185.838Z" fill="#231F20"/>
<path d="M267.235 165.486C256.195 160.745 240.61 160.233 234.423 160.233C228.235 160.233 212.652 160.745 201.611 165.486L201.333 164.839C212.495 160.047 228.192 159.53 234.423 159.53C240.654 159.53 256.352 160.047 267.512 164.84L267.235 165.486ZM210.325 176.719L210.025 176.083C214.162 174.134 221.752 171.811 234.423 171.811C247.023 171.811 254.597 174.112 258.732 176.042L258.434 176.679C254.364 174.779 246.894 172.514 234.423 172.514C221.882 172.514 214.396 174.801 210.325 176.719ZM234.423 137.792C228.192 137.792 212.495 137.275 201.333 132.483L201.611 131.837C212.652 136.577 228.235 137.089 234.423 137.089C240.61 137.089 256.193 136.577 267.235 131.837L267.512 132.483C256.351 137.275 240.654 137.792 234.423 137.792ZM234.423 125.511C221.753 125.511 214.162 123.188 210.025 121.239L210.325 120.603C214.397 122.521 221.883 124.808 234.423 124.808C246.894 124.808 254.364 122.543 258.434 120.643L258.732 121.28C254.597 123.211 247.023 125.511 234.423 125.511Z" fill="#231F20"/>
<path d="M41.3503 47.274H230.65V152.04C230.65 154.371 228.761 156.26 226.43 156.26H45.5701C43.2395 156.26 41.3501 154.371 41.3501 152.04V47.274H41.3503Z" fill="white"/>
<path d="M226.43 156.612H45.5701C43.0492 156.612 40.9985 154.561 40.9985 152.04V46.9222H231.001V152.04C231.001 154.561 228.951 156.612 226.43 156.612ZM41.7018 47.6255V152.04C41.7018 154.173 43.4371 155.908 45.5703 155.908H226.43C228.563 155.908 230.298 154.173 230.298 152.04V47.6255H41.7018Z" fill="#231F20"/>
<path d="M45.5702 24.5868H226.43C228.76 24.5868 230.65 26.4762 230.65 28.8068V47.274H41.3503V28.8068C41.3503 26.4762 43.2395 24.5868 45.5702 24.5868Z" fill="white"/>
<path d="M231.001 47.6255H40.9985V28.8068C40.9985 26.2861 43.0494 24.2352 45.5701 24.2352H226.43C228.951 24.2352 231.001 26.2861 231.001 28.8068L231.001 47.6255ZM41.7018 46.9222H230.298V28.8068C230.298 26.6738 228.563 24.9383 226.43 24.9383H45.5701C43.4371 24.9383 41.7016 26.6736 41.7016 28.8068V46.9222H41.7018Z" fill="#231F20"/>
<path d="M54.9884 39.8661C52.818 39.8661 51.0525 38.1006 51.0525 35.9303C51.0525 33.7602 52.818 31.9946 54.9884 31.9946C57.1585 31.9946 58.924 33.7602 58.924 35.9303C58.9242 38.1006 57.1587 39.8661 54.9884 39.8661ZM54.9884 32.6977C53.2058 32.6977 51.7558 34.1479 51.7558 35.9303C51.7558 37.7129 53.206 39.1628 54.9884 39.1628C56.7707 39.1628 58.2209 37.7126 58.2209 35.9303C58.2209 34.1479 56.7709 32.6977 54.9884 32.6977ZM67.374 39.8661C65.2039 39.8661 63.4384 38.1006 63.4384 35.9303C63.4384 33.7602 65.2039 31.9946 67.374 31.9946C69.5441 31.9946 71.3096 33.7602 71.3096 35.9303C71.3099 38.1006 69.5443 39.8661 67.374 39.8661ZM67.374 32.6977C65.5916 32.6977 64.1414 34.1479 64.1414 35.9303C64.1414 37.7129 65.5916 39.1628 67.374 39.1628C69.1564 39.1628 70.6066 37.7126 70.6066 35.9303C70.6066 34.1479 69.1564 32.6977 67.374 32.6977ZM79.7597 39.8661C77.5895 39.8661 75.824 38.1006 75.824 35.9303C75.824 33.7602 77.5895 31.9946 79.7597 31.9946C81.93 31.9946 83.6955 33.7602 83.6955 35.9303C83.6955 38.1006 81.93 39.8661 79.7597 39.8661ZM79.7597 32.6977C77.9773 32.6977 76.5271 34.1479 76.5271 35.9303C76.5271 37.7129 77.9773 39.1628 79.7597 39.1628C81.5422 39.1628 82.9922 37.7126 82.9922 35.9303C82.9922 34.1479 81.5422 32.6977 79.7597 32.6977ZM87.2695 125.966L82.9046 108.526L70.4047 121.447L75.3445 104.161L58.059 109.101L70.9795 96.6014L53.5402 92.2362L70.9795 87.8716L58.059 75.3717L75.3445 80.3115L70.4047 63.026L82.9046 75.9466L87.2695 58.5072L91.6344 75.9466L104.134 63.026L99.1947 80.3115L116.48 75.3717L103.56 87.8716L120.999 92.2362L103.56 96.6014L116.48 109.101L99.1947 104.161L104.134 121.447L91.6346 108.526L87.2695 125.966ZM83.2794 107.127L87.2695 123.069L91.2595 107.127L102.686 118.938L98.1705 103.137L113.971 107.652L102.161 96.2263L118.102 92.236L102.161 88.2462L113.971 76.8199L98.1705 81.3354L102.686 65.5345L91.2595 77.3453L87.2695 61.4037L83.2794 77.3453L71.8531 65.5345L76.3686 81.3354L60.5677 76.8199L72.3785 88.2462L56.4369 92.236L72.3785 96.2263L60.5677 107.652L76.3686 103.137L71.8531 118.938L83.2794 107.127Z" fill="#231F20"/>
<path d="M141.415 106.744L114.342 99.4905L87.2693 92.2362L94.5235 119.309L101.778 146.382L115.056 128.335L128.415 141.694L136.727 133.382L123.368 120.023L141.415 106.744Z" fill="#231F20"/>
<path d="M92.2226 99.2665H82.3157C81.7649 99.2665 81.2367 99.0477 80.8473 98.6582C80.4578 98.2688 80.239 97.7406 80.239 97.1898V87.2829C80.239 87.0102 80.2927 86.7401 80.3971 86.4881C80.5015 86.2362 80.6544 86.0073 80.8473 85.8144C81.0401 85.6216 81.269 85.4686 81.521 85.3643C81.7729 85.2599 82.043 85.2062 82.3157 85.2062H92.2226C92.4953 85.2062 92.7654 85.2599 93.0173 85.3643C93.2693 85.4686 93.4982 85.6216 93.6911 85.8144C93.8839 86.0073 94.0369 86.2362 94.1412 86.4881C94.2456 86.7401 94.2993 87.0102 94.2993 87.2829V97.1898C94.2993 97.4625 94.2456 97.7326 94.1413 97.9845C94.0369 98.2365 93.884 98.4654 93.6911 98.6583C93.4983 98.8511 93.2693 99.0041 93.0174 99.1084C92.7654 99.2128 92.4953 99.2665 92.2226 99.2665ZM140.953 99.6182H131.047C129.708 99.6182 128.618 98.5288 128.618 97.1898V87.2831C128.618 85.9441 129.708 84.8546 131.047 84.8546H140.953C142.292 84.8546 143.382 85.9441 143.382 87.2831V97.1898C143.382 98.5288 142.292 99.6182 140.953 99.6182ZM131.047 85.5577C130.095 85.5577 129.321 86.3316 129.321 87.2829V97.1895C129.321 98.1408 130.095 98.9147 131.047 98.9147H140.953C141.905 98.9147 142.678 98.1408 142.678 97.1895V87.2829C142.678 86.3316 141.905 85.5577 140.953 85.5577H131.047ZM189.684 99.6182H179.777C178.438 99.6182 177.349 98.5288 177.349 97.1898V87.2831C177.349 85.9441 178.438 84.8546 179.777 84.8546H189.684C191.023 84.8546 192.112 85.9441 192.112 87.2831V97.1898C192.112 98.5288 191.023 99.6182 189.684 99.6182ZM179.777 85.5577C178.826 85.5577 178.052 86.3316 178.052 87.2829V97.1895C178.052 98.1408 178.826 98.9147 179.777 98.9147H189.684C190.635 98.9147 191.409 98.1408 191.409 97.1895V87.2829C191.409 86.3316 190.635 85.5577 189.684 85.5577H179.777Z" fill="#231F20"/>
<mask id="mask0_194_555" style="mask-type:luminance" maskUnits="userSpaceOnUse" x="87" y="92" width="55" height="55">
<path d="M141.415 106.744L114.342 99.4905L87.2693 92.2362L94.5235 119.309L101.778 146.382L115.056 128.335L128.415 141.694L136.727 133.382L123.368 120.023L141.415 106.744Z" fill="white"/>
</mask>
<g mask="url(#mask0_194_555)">
<path d="M92.2226 99.2665H82.3157C81.7649 99.2665 81.2367 99.0477 80.8473 98.6582C80.4578 98.2688 80.239 97.7406 80.239 97.1898V87.2829C80.239 87.0102 80.2927 86.7401 80.3971 86.4881C80.5015 86.2362 80.6544 86.0073 80.8473 85.8144C81.0401 85.6216 81.269 85.4686 81.521 85.3643C81.7729 85.2599 82.043 85.2062 82.3157 85.2062H92.2226C92.4953 85.2062 92.7654 85.2599 93.0173 85.3643C93.2693 85.4686 93.4982 85.6216 93.6911 85.8144C93.8839 86.0073 94.0369 86.2362 94.1412 86.4881C94.2456 86.7401 94.2993 87.0102 94.2993 87.2829V97.1898C94.2993 97.4625 94.2456 97.7326 94.1413 97.9845C94.0369 98.2365 93.884 98.4654 93.6911 98.6583C93.4983 98.8511 93.2693 99.0041 93.0174 99.1084C92.7654 99.2128 92.4953 99.2665 92.2226 99.2665Z" fill="white"/>
</g>
<mask id="mask1_194_555" style="mask-type:luminance" maskUnits="userSpaceOnUse" x="87" y="92" width="55" height="55">
<path d="M141.415 106.744L114.342 99.4905L87.2693 92.2362L94.5235 119.309L101.778 146.382L115.056 128.335L128.415 141.694L136.727 133.382L123.368 120.023L141.415 106.744Z" fill="white"/>
</mask>
<g mask="url(#mask1_194_555)">
<path d="M87.2693 125.966L82.9044 108.526L70.4045 121.447L75.3443 104.161L58.0588 109.101L70.9794 96.6013L53.54 92.2362L70.9794 87.8715L58.0588 75.3717L75.3443 80.3114L70.4045 63.026L82.9044 75.9465L87.2693 58.5072L91.6342 75.9465L104.134 63.026L99.1945 80.3114L116.48 75.3717L103.559 87.8715L120.999 92.2362L103.559 96.6013L116.48 109.101L99.1945 104.161L104.134 121.447L91.6344 108.526L87.2693 125.966ZM83.2792 107.127L87.2693 123.069L91.2593 107.127L102.686 118.938L98.1704 103.137L113.971 107.652L102.16 96.2263L118.102 92.236L102.16 88.2461L113.971 76.8198L98.1704 81.3354L102.686 65.5345L91.2593 77.3453L87.2693 61.4037L83.2792 77.3453L71.8529 65.5345L76.3684 81.3354L60.5675 76.8198L72.3783 88.2461L56.4367 92.236L72.3783 96.2263L60.5675 107.652L76.3684 103.137L71.8529 118.938L83.2792 107.127Z" fill="white"/>
</g>
</svg>
