<svg width="360" height="188" viewBox="0 0 360 188" fill="none" xmlns="http://www.w3.org/2000/svg">
<rect x="34.3567" y="153.261" width="34.6746" height="34.6745" rx="17.3373" fill="#1C1B1F"/>
<mask id="mask0_194_554" style="mask-type:alpha" maskUnits="userSpaceOnUse" x="34" y="153" width="36" height="35">
<rect x="34.3567" y="153.261" width="34.6746" height="34.6745" fill="#D9D9D9"/>
</mask>
<g mask="url(#mask0_194_554)">
<path d="M42.7472 180.826C42.1963 180.826 41.7248 180.63 41.3325 180.238C40.9403 179.845 40.7441 179.374 40.7441 178.823V162.265C40.7441 161.714 40.9403 161.242 41.3325 160.85C41.7248 160.458 42.1963 160.262 42.7472 160.262H53.697V161.196H42.7472C42.4356 161.196 42.1796 161.296 41.9793 161.497C41.779 161.697 41.6789 161.953 41.6789 162.265V178.823C41.6789 179.134 41.779 179.39 41.9793 179.591C42.1796 179.791 42.4356 179.891 42.7472 179.891H59.3055C59.6171 179.891 59.873 179.791 60.0733 179.591C60.2736 179.39 60.3738 179.134 60.3738 178.823V167.873H61.3085V178.823C61.3085 179.374 61.1124 179.845 60.7201 180.238C60.3279 180.63 59.8563 180.826 59.3055 180.826H42.7472ZM59.0384 165.202V162.532H56.3677V161.597H59.0384V158.926H59.9732V161.597H62.6439V162.532H59.9732V165.202H59.0384ZM45.6182 176.352H56.7016L53.2964 171.812L49.958 175.952L47.8215 173.481L45.6182 176.352Z" fill="white"/>
</g>
<rect x="5.92358" y="84.5478" width="34.6746" height="34.6745" rx="17.3373" fill="#1C1B1F"/>
<mask id="mask1_194_554" style="mask-type:alpha" maskUnits="userSpaceOnUse" x="5" y="84" width="36" height="36">
<rect x="5.92358" y="84.5478" width="34.6746" height="34.6745" fill="#D9D9D9"/>
</mask>
<g mask="url(#mask1_194_554)">
<path d="M18.4781 102.399C18.6973 102.399 18.8916 102.319 19.061 102.16C19.2303 102.001 19.315 101.818 19.315 101.612C19.315 101.406 19.2303 101.224 19.061 101.064C18.8916 100.905 18.6973 100.826 18.4781 100.826C18.2589 100.826 18.0646 100.905 17.8952 101.064C17.7258 101.224 17.6411 101.406 17.6411 101.612C17.6411 101.818 17.7258 102.001 17.8952 102.16C18.0646 102.319 18.2589 102.399 18.4781 102.399ZM23.2608 102.399C23.48 102.399 23.6743 102.319 23.8437 102.16C24.013 102.001 24.0977 101.818 24.0977 101.612C24.0977 101.406 24.013 101.224 23.8437 101.064C23.6743 100.905 23.48 100.826 23.2608 100.826C23.0416 100.826 22.8473 100.905 22.6779 101.064C22.5085 101.224 22.4238 101.406 22.4238 101.612C22.4238 101.818 22.5085 102.001 22.6779 102.16C22.8473 102.319 23.0416 102.399 23.2608 102.399ZM28.0435 102.399C28.2627 102.399 28.457 102.319 28.6264 102.16C28.7957 102.001 28.8804 101.818 28.8804 101.612C28.8804 101.406 28.7957 101.224 28.6264 101.064C28.457 100.905 28.2627 100.826 28.0435 100.826C27.8243 100.826 27.63 100.905 27.4606 101.064C27.2912 101.224 27.2065 101.406 27.2065 101.612C27.2065 101.818 27.2912 102.001 27.4606 102.16C27.63 102.319 27.8243 102.399 28.0435 102.399ZM12.8584 112.287V95.7688C12.8584 95.2819 13.0278 94.8792 13.3666 94.5608C13.7053 94.2424 14.1338 94.0833 14.6519 94.0833H31.8696C32.3877 94.0833 32.8162 94.2424 33.155 94.5608C33.4937 94.8792 33.6631 95.2819 33.6631 95.7688V107.455C33.6631 107.942 33.4937 108.345 33.155 108.663C32.8162 108.982 32.3877 109.141 31.8696 109.141H16.2063L12.8584 112.287ZM15.8476 108.354H31.8696C32.1088 108.354 32.328 108.261 32.5272 108.073C32.7265 107.886 32.8262 107.68 32.8262 107.455V95.7688C32.8262 95.5441 32.7265 95.3381 32.5272 95.1508C32.328 94.9635 32.1088 94.8698 31.8696 94.8698H14.6519C14.4128 94.8698 14.1936 94.9635 13.9943 95.1508C13.795 95.3381 13.6954 95.5441 13.6954 95.7688V110.377L15.8476 108.354Z" fill="white"/>
</g>
<rect y="124.828" width="34.6746" height="34.6745" rx="17.3373" fill="#1C1B1F"/>
<path d="M23.4352 150.386V146.918H19.9678V146.081H23.4352V142.614H24.2722V146.081H27.7397V146.918H24.2722V150.386H23.4352ZM15.5438 146.918H11.4785C10.2214 146.918 9.14992 146.475 8.26393 145.59C7.37793 144.704 6.93494 143.633 6.93494 142.376C6.93494 141.12 7.37793 140.048 8.26393 139.161C9.14992 138.274 10.2214 137.831 11.4785 137.831H15.5438V138.668H11.4785C10.4622 138.668 9.59033 139.032 8.86296 139.759C8.13559 140.486 7.77191 141.358 7.77191 142.375C7.77191 143.391 8.13559 144.263 8.86296 144.99C9.59033 145.718 10.4622 146.081 11.4785 146.081H15.5438V146.918ZM13.3318 142.793V141.956H21.3428V142.793H13.3318ZM27.7397 142.375H26.9027C26.9027 141.358 26.539 140.486 25.8116 139.759C25.0843 139.032 24.2124 138.668 23.1961 138.668H19.1308V137.831H23.1961C24.4532 137.831 25.5247 138.274 26.4107 139.16C27.2967 140.046 27.7397 141.118 27.7397 142.375Z" fill="white"/>
<path d="M50.8828 110.12H99.7305V110.802H50.8828V110.12Z" fill="#231F20"/>
<path d="M74.9641 86.1094H75.6491V134.812H74.9641V86.1094Z" fill="#231F20"/>
<path d="M75.5801 135.018L75.0331 134.607C75.1137 134.5 83.1054 123.773 83.1054 110.461C83.1054 97.1492 75.1137 86.4219 75.0331 86.315L75.5801 85.9037C75.6621 86.0122 83.7904 96.9147 83.7904 110.461C83.7904 124.007 75.6621 134.909 75.5801 135.018Z" fill="#231F20"/>
<path d="M75.3068 135.154C61.6506 135.154 50.5404 124.077 50.5404 110.461C50.5404 96.8455 61.6506 85.7682 75.3068 85.7682C88.9629 85.7682 100.073 96.8455 100.073 110.461C100.073 124.077 88.9629 135.154 75.3068 135.154ZM75.3068 86.451C62.0283 86.451 51.2254 97.2218 51.2254 110.461C51.2254 123.7 62.0283 134.471 75.3068 134.471C88.5852 134.471 99.3881 123.7 99.3881 110.461C99.3881 97.2218 88.5852 86.451 75.3068 86.451Z" fill="#231F20"/>
<path d="M75.4155 135.136L75.198 134.488C75.2382 134.475 79.2667 133.1 83.2377 129.46C86.8914 126.111 91.2468 120.096 91.2468 110.461C91.2468 100.826 86.8912 94.8109 83.2377 91.4619C79.2667 87.8219 75.2382 86.447 75.198 86.4335L75.4155 85.7859C75.5844 85.8422 79.6021 87.2097 83.6796 90.9391C87.4441 94.3822 91.9318 100.564 91.9318 110.461C91.9318 120.358 87.4441 126.54 83.6796 129.983C79.6019 133.712 75.5844 135.08 75.4155 135.136Z" fill="#231F20"/>
<path d="M75.0331 135.018C74.9511 134.909 66.8229 124.007 66.8229 110.461C66.8229 96.9147 74.9511 86.0124 75.0331 85.9037L75.5802 86.315C75.4995 86.4219 67.5079 97.1492 67.5079 110.461C67.5079 123.773 75.4995 134.5 75.5802 134.607L75.0331 135.018Z" fill="#231F20"/>
<path d="M75.198 135.136C75.0291 135.08 71.0113 133.712 66.9339 129.983C63.1694 126.54 58.6816 120.358 58.6816 110.461C58.6816 100.564 63.1694 94.3822 66.9339 90.9391C71.0113 87.2099 75.0291 85.8422 75.198 85.7859L75.4155 86.4335C75.3753 86.4472 71.3468 87.8219 67.3758 91.4619C63.722 94.8109 59.3667 100.826 59.3667 110.461C59.3667 120.096 63.7223 126.111 67.3758 129.46C71.3468 133.1 75.3753 134.475 75.4155 134.488L75.198 135.136Z" fill="#231F20"/>
<path d="M97.0149 121.681C94.5831 120.64 87.5996 118.218 75.3065 118.218C63.0143 118.218 56.0308 120.64 53.5985 121.681L53.3282 121.053C55.7994 119.995 62.8871 117.535 75.3065 117.535C87.7265 117.535 94.8143 119.996 97.2852 121.054L97.0149 121.681ZM59.3787 129.104L59.0867 128.487C61.8393 127.194 66.8878 125.653 75.3067 125.653C83.6791 125.653 88.7164 127.179 91.4677 128.459L91.1778 129.078C88.4893 127.827 83.5533 126.336 75.3067 126.336C67.0145 126.335 62.068 127.841 59.3787 129.104ZM75.3067 103.386C62.8865 103.386 55.7991 100.926 53.3285 99.8682L53.5987 99.2407C56.0305 100.282 63.0136 102.703 75.3067 102.703C87.5991 102.703 94.5829 100.281 97.0151 99.2405L97.2854 99.8682C94.8143 100.926 87.7263 103.386 75.3067 103.386ZM75.3067 95.2692C66.8869 95.2692 61.8388 93.7281 59.0867 92.4352L59.3787 91.8174C62.0676 93.0805 67.0136 94.5862 75.3067 94.5862C83.5529 94.5862 88.489 93.0948 91.1781 91.8438L91.4677 92.4629C88.7159 93.7431 83.6785 95.2692 75.3067 95.2692ZM305.684 91.0831C279.361 91.0831 252.135 87.659 252.135 81.9291C252.135 76.199 279.361 72.7749 305.684 72.7749C332.005 72.7749 359.232 76.199 359.232 81.9291C359.232 87.6588 332.005 91.0831 305.684 91.0831ZM305.684 73.4577C274.062 73.4577 252.82 77.838 252.82 81.9289C252.82 86.0198 274.062 90.3999 305.684 90.3999C337.305 90.3999 358.547 86.0196 358.547 81.9289C358.547 77.838 337.305 73.4577 305.684 73.4577Z" fill="#231F20"/>
<path d="M305.684 99.8957C279.361 99.8957 252.135 96.4716 252.135 90.7415C252.135 85.0116 279.361 81.5875 305.684 81.5875C332.006 81.5875 359.232 85.0116 359.232 90.7415C359.232 96.4716 332.006 99.8957 305.684 99.8957ZM305.684 82.2705C274.062 82.2705 252.82 86.6508 252.82 90.7415C252.82 94.8326 274.062 99.2127 305.684 99.2127C337.305 99.2127 358.547 94.8324 358.547 90.7415C358.547 86.6506 337.305 82.2705 305.684 82.2705Z" fill="#231F20"/>
<path d="M305.684 108.709C279.361 108.709 252.135 105.284 252.135 99.5543C252.135 93.8242 279.361 90.4001 305.684 90.4001C332.006 90.4001 359.232 93.8242 359.232 99.5543C359.232 105.284 332.006 108.709 305.684 108.709ZM305.684 91.0831C274.062 91.0831 252.82 95.4634 252.82 99.5543C252.82 103.645 274.062 108.026 305.684 108.026C337.305 108.026 358.547 103.645 358.547 99.5543C358.547 95.4634 337.305 91.0831 305.684 91.0831Z" fill="#231F20"/>
<path d="M305.684 117.521C279.361 117.521 252.135 114.097 252.135 108.367C252.135 102.637 279.361 99.213 305.684 99.213C332.006 99.213 359.232 102.637 359.232 108.367C359.232 114.097 332.006 117.521 305.684 117.521ZM305.684 99.8957C274.062 99.8957 252.82 104.276 252.82 108.367C252.82 112.458 274.062 116.838 305.684 116.838C337.305 116.838 358.547 112.458 358.547 108.367C358.547 104.276 337.305 99.8957 305.684 99.8957Z" fill="#231F20"/>
<path d="M305.684 126.334C279.361 126.334 252.135 122.91 252.135 117.18C252.135 111.45 279.361 108.026 305.684 108.026C332.006 108.026 359.232 111.45 359.232 117.18C359.232 122.91 332.006 126.334 305.684 126.334ZM305.684 108.709C274.062 108.709 252.82 113.089 252.82 117.18C252.82 121.271 274.062 125.651 305.684 125.651C337.305 125.651 358.547 121.271 358.547 117.18C358.547 113.089 337.305 108.709 305.684 108.709Z" fill="#231F20"/>
<path d="M65.5142 56.7659H341.621V116.771C341.621 119.034 339.781 120.869 337.511 120.869H69.6244C67.3544 120.869 65.5142 119.034 65.5142 116.771V56.7659Z" fill="white"/>
<path d="M337.511 121.211H69.6245C67.1694 121.211 65.1719 119.219 65.1719 116.771V56.4243H341.964V116.771C341.964 119.219 339.966 121.211 337.511 121.211ZM65.8569 57.1072V116.771C65.8569 118.842 67.5471 120.528 69.6245 120.528H337.511C339.589 120.528 341.279 118.843 341.279 116.771V57.1072H65.8569Z" fill="#231F20"/>
<path d="M69.6244 34.7343H337.511C339.781 34.7343 341.621 36.5691 341.621 38.8324V56.7658H65.5142V38.8324C65.5142 36.5691 67.3544 34.7343 69.6244 34.7343Z" fill="white"/>
<path d="M341.964 57.1072H65.1719V38.8324C65.1719 36.3843 67.1694 34.3929 69.6245 34.3929H337.511C339.967 34.3929 341.964 36.3845 341.964 38.8324V57.1072ZM65.8569 56.4242H341.279V38.8324C341.279 36.7611 339.589 35.0757 337.511 35.0757H69.6245C67.5471 35.0757 65.8569 36.7608 65.8569 38.8324V56.4242Z" fill="#231F20"/>
<path d="M78.7976 49.5721C76.684 49.5721 74.9644 47.8576 74.9644 45.7502C74.9644 43.6428 76.684 41.9283 78.7976 41.9283C80.9115 41.9283 82.6311 43.6428 82.6311 45.7502C82.6311 47.8576 80.9115 49.5721 78.7976 49.5721ZM78.7976 42.6111C77.0616 42.6111 75.6491 44.0192 75.6491 45.7502C75.6491 47.4813 77.0616 48.8894 78.7976 48.8894C80.5338 48.8894 81.9461 47.4813 81.9461 45.7502C81.9461 44.0192 80.5336 42.6111 78.7976 42.6111ZM90.8611 49.5721C88.7472 49.5721 87.0276 47.8576 87.0276 45.7502C87.0276 43.6428 88.7472 41.9283 90.8611 41.9283C92.9748 41.9283 94.6944 43.6428 94.6944 45.7502C94.6944 47.8576 92.9748 49.5721 90.8611 49.5721ZM90.8611 42.6111C89.1249 42.6111 87.7126 44.0192 87.7126 45.7502C87.7126 47.4813 89.1251 48.8894 90.8611 48.8894C92.5971 48.8894 94.0096 47.4813 94.0096 45.7502C94.0096 44.0192 92.5971 42.6111 90.8611 42.6111ZM102.925 49.5721C100.811 49.5721 99.0911 47.8576 99.0911 45.7502C99.0911 43.6428 100.811 41.9283 102.925 41.9283C105.038 41.9283 106.758 43.6428 106.758 45.7502C106.758 47.8576 105.038 49.5721 102.925 49.5721ZM102.925 42.6111C101.188 42.6111 99.7761 44.0192 99.7761 45.7502C99.7761 47.4813 101.189 48.8894 102.925 48.8894C104.661 48.8894 106.073 47.4813 106.073 45.7502C106.073 44.0192 104.661 42.6111 102.925 42.6111Z" fill="#231F20"/>
<path d="M104.527 80.5486H286.022V97.0863H104.527V80.5486Z" fill="white"/>
<path d="M286.365 97.4279H104.185V80.207H286.365V97.4279ZM104.869 96.7449H285.679V80.89H104.869V96.7449Z" fill="#231F20"/>
<path d="M286.022 80.5486H302.609V97.0863H286.022V80.5486Z" fill="#231F20"/>
<path d="M302.951 97.4279H285.679V80.207H302.951V97.4279ZM286.364 96.7449H302.266V80.89H286.364V96.7449Z" fill="#231F20"/>
<path d="M295.711 90.9478C293.763 90.9478 292.179 89.3679 292.179 87.4261C292.179 85.4842 293.763 83.9044 295.711 83.9044C297.659 83.9044 299.243 85.4842 299.243 87.4261C299.243 89.3679 297.659 90.9478 295.711 90.9478ZM295.711 84.5876C294.141 84.5876 292.864 85.8612 292.864 87.4263C292.864 88.9914 294.141 90.2651 295.711 90.2651C297.281 90.2651 298.558 88.9914 298.558 87.4263C298.558 85.861 297.281 84.5876 295.711 84.5876Z" fill="white"/>
<path d="M289.486 93.1484L293.211 89.4344L293.695 89.9174L289.97 93.6313L289.486 93.1484Z" fill="white"/>
<path d="M61.8472 7.13263H62.4956V35.8544H61.8472V7.13263Z" fill="#231F20"/>
<path d="M76.575 21.1703V21.8165H47.7678V21.17L76.575 21.1703Z" fill="#231F20"/>
<path d="M51.757 11.5674L52.2153 11.1104L72.5849 31.4194L72.1266 31.8763L51.757 11.5674Z" fill="#231F20"/>
<path d="M72.1271 11.1097L72.5854 11.5667L52.216 31.8761L51.7577 31.4189L72.1271 11.1097Z" fill="#231F20"/>
<path d="M62.1714 24.0574C63.5916 24.0574 64.7429 22.9095 64.7429 21.4935C64.7429 20.0775 63.5916 18.9296 62.1714 18.9296C60.7512 18.9296 59.5999 20.0775 59.5999 21.4935C59.5999 22.9095 60.7512 24.0574 62.1714 24.0574Z" fill="#231F20"/>
<path d="M307.547 42.2697C319.055 42.2697 328.385 32.9678 328.385 21.4935C328.385 10.0191 319.055 0.717224 307.547 0.717224C296.038 0.717224 286.709 10.0191 286.709 21.4935C286.709 32.9678 296.038 42.2697 307.547 42.2697Z" fill="white"/>
<path d="M307.547 42.6111C295.868 42.6111 286.366 33.1377 286.366 21.4935C286.366 9.84928 295.868 0.376099 307.547 0.376099C319.226 0.376099 328.727 9.84928 328.727 21.4935C328.727 33.1377 319.226 42.6111 307.547 42.6111ZM307.547 1.05885C296.245 1.05885 287.051 10.2258 287.051 21.4935C287.051 32.7613 296.245 41.9283 307.547 41.9283C318.848 41.9283 328.042 32.7613 328.042 21.4935C328.042 10.2258 318.848 1.05885 307.547 1.05885Z" fill="#231F20"/>
<path d="M307.547 36.5302C301.14 36.5302 295.416 32.474 293.302 26.4365L293.949 26.2116C295.967 31.9749 301.431 35.8472 307.547 35.8472C313.662 35.8472 319.127 31.9749 321.144 26.2116L321.791 26.4365C319.678 32.4738 313.953 36.5302 307.547 36.5302Z" fill="#231F20"/>
<path d="M322.288 26.932C321.012 26.932 319.987 26.393 319.94 26.3679L320.263 25.7658C320.274 25.7714 321.357 26.3325 322.585 26.2371L322.64 26.9178C322.521 26.9275 322.403 26.932 322.288 26.932ZM292.695 26.932C292.579 26.932 292.462 26.9275 292.343 26.9181L292.398 26.2373C293.625 26.3366 294.709 25.7716 294.719 25.766L295.042 26.3681C294.995 26.393 293.971 26.932 292.695 26.932Z" fill="#231F20"/>
<path d="M312.751 22.6995C314.597 22.6995 316.093 19.5553 316.093 15.6767C316.093 11.798 314.597 8.65381 312.751 8.65381C310.906 8.65381 309.41 11.798 309.41 15.6767C309.41 19.5553 310.906 22.6995 312.751 22.6995Z" fill="#231F20"/>
<path d="M302.342 22.6995C304.188 22.6995 305.684 19.5553 305.684 15.6767C305.684 11.798 304.188 8.65381 302.342 8.65381C300.497 8.65381 299.001 11.798 299.001 15.6767C299.001 19.5553 300.497 22.6995 302.342 22.6995Z" fill="#231F20"/>
<path d="M90.9789 167.624L90.7434 166.983C90.8845 166.932 100.809 163.254 107.431 157.455C103.868 156.533 101.181 155.073 99.4128 153.094C98.5014 152.041 97.8721 150.776 97.5836 149.415C96.7126 145.32 99.1698 141.136 103.177 139.889C105.351 139.213 107.642 139.445 109.628 140.541C111.615 141.639 113.027 143.45 113.603 145.64C113.926 146.868 113.962 148.117 113.71 149.352C113.139 151.963 111.518 154.55 108.87 157.091C110.003 157.33 111.218 157.519 112.515 157.659C122.912 158.779 133.323 156.056 141.831 149.994C142.896 149.235 143.865 148.473 144.737 147.708C141.167 146.786 138.475 145.326 136.705 143.345C135.794 142.292 135.165 141.026 134.876 139.665C134.005 135.57 136.462 131.386 140.47 130.14C142.644 129.463 144.935 129.695 146.92 130.792C148.908 131.889 150.319 133.7 150.895 135.89C151.218 137.118 151.254 138.368 151.002 139.602C150.434 142.199 148.808 144.788 146.151 147.339C147.287 147.578 148.506 147.769 149.808 147.909C160.204 149.029 170.615 146.307 179.123 140.244C180.188 139.485 181.157 138.723 182.029 137.958C178.459 137.037 175.768 135.576 173.998 133.595C173.086 132.542 172.457 131.276 172.168 129.915C171.297 125.821 173.754 121.637 177.762 120.39C179.936 119.713 182.227 119.945 184.213 121.042C186.2 122.139 187.612 123.95 188.188 126.14C188.511 127.368 188.547 128.618 188.295 129.853C187.727 132.449 186.1 135.038 183.443 137.589C184.579 137.829 185.799 138.019 187.1 138.159C197.497 139.279 207.908 136.557 216.416 130.495C217.481 129.736 218.45 128.973 219.322 128.209C215.752 127.287 213.061 125.827 211.29 123.845C210.379 122.792 209.75 121.526 209.461 120.165C208.59 116.071 211.047 111.887 215.055 110.64C217.229 109.964 219.52 110.196 221.505 111.292C223.493 112.39 224.904 114.201 225.48 116.391C225.803 117.619 225.839 118.868 225.587 120.103C225.019 122.699 223.393 125.289 220.736 127.839C221.872 128.079 223.091 128.269 224.393 128.409C234.79 129.528 245.201 126.807 253.709 120.745C254.774 119.985 255.743 119.223 256.615 118.458C253.046 117.535 250.346 116.069 248.583 114.095C247.671 113.042 247.042 111.776 246.754 110.415C245.882 106.321 248.339 102.137 252.347 100.89C254.521 100.214 256.812 100.446 258.798 101.542C260.785 102.64 262.197 104.451 262.773 106.641C263.096 107.869 263.132 109.118 262.88 110.353C262.312 112.948 260.686 115.538 258.03 118.087C267.993 120.187 278.463 116.815 285.482 109.208L285.987 109.671C278.694 117.573 267.76 121.009 257.422 118.653C256.442 119.541 255.336 120.424 254.107 121.3C245.462 127.46 234.883 130.225 224.319 129.088C222.817 128.926 221.419 128.698 220.129 128.404C219.149 129.292 218.043 130.174 216.814 131.05C208.169 137.209 197.591 139.975 187.027 138.838C185.525 138.676 184.127 138.448 182.837 138.154C181.856 139.042 180.751 139.924 179.522 140.8C170.877 146.959 160.298 149.726 149.734 148.588C148.232 148.426 146.835 148.198 145.544 147.904C144.564 148.792 143.459 149.674 142.229 150.55C133.584 156.71 123.006 159.474 112.442 158.338C110.944 158.177 109.55 157.95 108.263 157.657C106.422 159.322 104.139 160.966 101.419 162.584C96.1159 165.736 91.0296 167.606 90.9789 167.624ZM105.654 140.192C104.895 140.192 104.131 140.308 103.381 140.541C99.7076 141.685 97.4553 145.52 98.2538 149.273C98.5198 150.523 99.0985 151.689 99.9278 152.644C101.674 154.599 104.395 156.025 108.042 156.904C110.508 154.619 112.424 152.026 113.04 149.211C113.27 148.084 113.237 146.939 112.94 145.813C112.412 143.805 111.118 142.145 109.296 141.139C108.16 140.511 106.914 140.192 105.654 140.192ZM142.947 130.442C142.188 130.442 141.423 130.558 140.674 130.791C137 131.934 134.748 135.77 135.546 139.523C135.812 140.773 136.391 141.939 137.22 142.894C138.969 144.851 141.693 146.279 145.348 147.157C148.099 144.604 149.771 142.026 150.332 139.461C150.562 138.334 150.529 137.189 150.233 136.063C149.705 134.055 148.411 132.395 146.589 131.389C145.452 130.761 144.207 130.442 142.947 130.442ZM180.239 120.693C179.48 120.693 178.716 120.808 177.966 121.042C174.292 122.185 172.04 126.02 172.839 129.773C173.104 131.023 173.683 132.189 174.513 133.144C176.261 135.101 178.986 136.529 182.64 137.407C185.392 134.854 187.063 132.276 187.625 129.711C187.854 128.585 187.821 127.439 187.526 126.313C186.997 124.305 185.703 122.645 183.881 121.639C182.745 121.011 181.5 120.693 180.239 120.693ZM217.532 110.943C216.773 110.943 216.008 111.059 215.259 111.292C211.585 112.435 209.333 116.27 210.131 120.023C210.397 121.273 210.976 122.439 211.805 123.394C213.554 125.352 216.279 126.779 219.933 127.658C222.685 125.104 224.356 122.526 224.917 119.962C225.147 118.835 225.114 117.69 224.818 116.564C224.29 114.556 222.996 112.896 221.174 111.889C220.038 111.262 218.792 110.943 217.532 110.943ZM254.824 101.193C254.065 101.193 253.301 101.309 252.551 101.542C248.878 102.685 246.626 106.52 247.424 110.273C247.69 111.523 248.269 112.689 249.098 113.644C250.837 115.591 253.572 117.025 257.227 117.906C259.978 115.353 261.649 112.776 262.21 110.212C262.44 109.084 262.407 107.939 262.111 106.814C261.582 104.806 260.289 103.146 258.467 102.139C257.33 101.512 256.085 101.193 254.824 101.193Z" fill="#231F20"/>
<path d="M283.484 119.823C283.457 119.774 281.256 115.563 283.802 111.304C279.447 113.698 275.299 111.363 275.25 111.335L275.594 110.744C275.806 110.866 280.843 113.681 285.497 109.194L285.973 109.685C281.308 114.182 284.059 119.448 284.087 119.5L283.484 119.823Z" fill="#231F20"/>
</svg>
