<svg width="264" height="218" viewBox="0 0 264 218" fill="none" xmlns="http://www.w3.org/2000/svg">
<path d="M19.7075 61.6551H244.292V177.076C244.292 180.492 241.523 183.261 238.107 183.261H25.8925C22.4766 183.261 19.7075 180.492 19.7075 177.076V61.6551Z" fill="white"/>
<path d="M238.108 183.567H25.8925C22.3134 183.567 19.4016 180.655 19.4016 177.076V61.3492H244.599V177.076C244.599 180.655 241.687 183.567 238.108 183.567ZM20.0138 61.9611V177.076C20.0138 180.318 22.6511 182.955 25.8925 182.955H238.108C241.349 182.955 243.986 180.318 243.986 177.076V61.9611H20.0138Z" fill="#231F20"/>
<path d="M25.8925 34.739H238.108C241.523 34.739 244.293 37.5081 244.293 40.924V61.6551H19.7075V40.924C19.7075 37.5081 22.4766 34.739 25.8925 34.739Z" fill="#231F20"/>
<path d="M244.599 61.9611H19.4016V40.924C19.4016 37.3448 22.3134 34.433 25.8925 34.433H238.108C241.687 34.433 244.599 37.3448 244.599 40.924V61.9611ZM20.0138 61.3491H243.986V40.924C243.986 37.6823 241.349 35.045 238.108 35.045H25.8925C22.6511 35.045 20.0138 37.6823 20.0138 40.924V61.3491Z" fill="#231F20"/>
<path d="M35.8877 52.4494C38.2361 52.4494 40.1399 50.5456 40.1399 48.1972C40.1399 45.8488 38.2361 43.945 35.8877 43.945C33.5393 43.945 31.6355 45.8488 31.6355 48.1972C31.6355 50.5456 33.5393 52.4494 35.8877 52.4494Z" fill="white"/>
<path d="M35.8878 52.7554C33.3743 52.7554 31.3296 50.7107 31.3296 48.1972C31.3296 45.6837 33.3743 43.639 35.8878 43.639C38.4012 43.639 40.4462 45.6837 40.4462 48.1972C40.4462 50.7107 38.4012 52.7554 35.8878 52.7554ZM35.8878 44.2507C33.712 44.2507 31.9415 46.0212 31.9415 48.1972C31.9415 50.3732 33.7117 52.1436 35.8878 52.1436C38.0638 52.1436 39.834 50.3732 39.834 48.1972C39.834 46.0212 38.0638 44.2507 35.8878 44.2507Z" fill="white"/>
<path d="M50.582 52.4494C52.9305 52.4494 54.8342 50.5456 54.8342 48.1972C54.8342 45.8488 52.9305 43.945 50.582 43.945C48.2336 43.945 46.3298 45.8488 46.3298 48.1972C46.3298 50.5456 48.2336 52.4494 50.582 52.4494Z" fill="white"/>
<path d="M50.5821 52.7554C48.0686 52.7554 46.0237 50.7107 46.0237 48.1972C46.0237 45.6837 48.0686 43.639 50.5821 43.639C53.0956 43.639 55.1405 45.6837 55.1405 48.1972C55.1405 50.7107 53.0956 52.7554 50.5821 52.7554ZM50.5821 44.2507C48.406 44.2507 46.6359 46.0212 46.6359 48.1972C46.6359 50.3732 48.406 52.1436 50.5821 52.1436C52.7581 52.1436 54.5283 50.3732 54.5283 48.1972C54.5283 46.0212 52.7581 44.2507 50.5821 44.2507Z" fill="white"/>
<path d="M65.2764 52.4494C67.6248 52.4494 69.5286 50.5456 69.5286 48.1972C69.5286 45.8488 67.6248 43.945 65.2764 43.945C62.9279 43.945 61.0242 45.8488 61.0242 48.1972C61.0242 50.5456 62.9279 52.4494 65.2764 52.4494Z" fill="white"/>
<path d="M65.2764 52.7554C62.763 52.7554 60.718 50.7107 60.718 48.1972C60.718 45.6837 62.763 43.639 65.2764 43.639C67.7899 43.639 69.8348 45.6837 69.8348 48.1972C69.8348 50.7107 67.7899 52.7554 65.2764 52.7554ZM65.2764 44.2507C63.1004 44.2507 61.3302 46.0212 61.3302 48.1972C61.3302 50.3732 63.1004 52.1436 65.2764 52.1436C67.4525 52.1436 69.2227 50.3732 69.2227 48.1972C69.2227 46.0212 67.4525 44.2507 65.2764 44.2507Z" fill="white"/>
<path d="M240.579 183.052C240.539 183.052 240.499 183.044 240.462 183.029C240.425 183.014 240.391 182.991 240.363 182.963C240.334 182.934 240.312 182.901 240.296 182.863C240.281 182.826 240.273 182.787 240.273 182.746V61.6551C240.273 61.574 240.305 61.4962 240.363 61.4388C240.42 61.3814 240.498 61.3492 240.579 61.3492C240.66 61.3492 240.738 61.3814 240.796 61.4388C240.853 61.4962 240.885 61.574 240.885 61.6551V182.747C240.885 182.787 240.877 182.827 240.862 182.864C240.847 182.901 240.824 182.935 240.796 182.963C240.767 182.991 240.733 183.014 240.696 183.029C240.659 183.045 240.619 183.052 240.579 183.052Z" fill="#231F20"/>
<path d="M242.436 120.171C241.944 120.171 241.471 120.366 241.123 120.714C240.775 121.063 240.579 121.535 240.579 122.027V162.626C240.579 163.118 240.775 163.591 241.123 163.939C241.471 164.287 241.944 164.483 242.436 164.483C242.928 164.483 243.401 164.287 243.749 163.939C244.097 163.591 244.293 163.118 244.293 162.626V122.027C244.293 121.535 244.097 121.063 243.749 120.714C243.401 120.366 242.928 120.171 242.436 120.171Z" fill="#231F20"/>
<path d="M242.436 164.789C241.244 164.789 240.273 163.819 240.273 162.626V122.027C240.273 120.835 241.244 119.865 242.436 119.865C243.628 119.865 244.599 120.835 244.599 122.027V162.626C244.599 163.819 243.628 164.789 242.436 164.789ZM242.436 120.477C242.025 120.477 241.631 120.641 241.34 120.931C241.049 121.222 240.886 121.616 240.885 122.027V162.626C240.885 163.481 241.581 164.177 242.436 164.177C243.291 164.177 243.987 163.481 243.987 162.626V122.027C243.986 121.172 243.291 120.477 242.436 120.477ZM10.8204 19.1343L12.0285 22.2738L15.1681 23.482L12.0285 24.6902L10.8204 27.83L9.61106 24.6913L6.47241 23.482L9.6122 22.2738L10.8204 19.1343ZM255.144 206.769L256.352 209.909L259.492 211.117L256.352 212.325L255.144 215.465L253.934 212.326L250.796 211.117L253.935 209.909L255.144 206.769ZM42.918 208.757L44.1262 211.897L47.2657 213.105L44.1262 214.313L42.918 217.453L41.7084 214.315L38.57 213.105L41.7098 211.897L42.918 208.757ZM204.592 0.547028L205.8 3.68659L208.94 4.89476L205.8 6.10293L204.592 9.24271L203.383 6.10407L200.244 4.89476L203.384 3.68659L204.592 0.547028Z" fill="#231F20"/>
<path d="M93.822 103.606H193.546V154.935H93.822V103.606Z" fill="white"/>
<path d="M193.545 155.241H93.8221C93.7409 155.241 93.6631 155.209 93.6057 155.152C93.5484 155.094 93.5161 155.016 93.5161 154.935V103.606C93.5161 103.437 93.6531 103.3 93.8221 103.3H193.546C193.715 103.3 193.852 103.437 193.852 103.606V154.935C193.852 155.104 193.715 155.241 193.545 155.241ZM94.1281 154.629H193.239V103.912H94.1281V154.629Z" fill="#231F20"/>
<path d="M142.441 102.362H144.927V104.849H142.441V102.362ZM142.441 153.692H144.927V156.178H142.441V153.692ZM194.789 128.027V130.514H192.302V128.027H194.789ZM95.0652 128.027V130.513H92.5789V128.027H95.0652Z" fill="#231F20"/>
<path d="M191.332 101.392H195.76V105.82H191.332V101.392Z" fill="white"/>
<path d="M195.759 106.125H191.332C191.251 106.125 191.173 106.093 191.115 106.036C191.058 105.978 191.026 105.901 191.026 105.819V101.392C191.026 101.223 191.163 101.086 191.332 101.086H195.759C195.928 101.086 196.065 101.223 196.065 101.392V105.819C196.065 105.988 195.928 106.125 195.759 106.125ZM191.638 105.513H195.453V101.698H191.638V105.513Z" fill="#231F20"/>
<path d="M191.437 152.721H195.864V157.149H191.437V152.721Z" fill="white"/>
<path d="M195.864 157.455H191.437C191.355 157.455 191.278 157.423 191.22 157.365C191.163 157.308 191.131 157.23 191.131 157.149V152.721C191.131 152.552 191.268 152.415 191.437 152.415H195.864C196.033 152.415 196.17 152.552 196.17 152.721V157.149C196.17 157.318 196.033 157.455 195.864 157.455ZM191.743 156.843H195.558V153.027H191.743V156.843Z" fill="#231F20"/>
<path d="M91.6082 101.392H96.0359V105.82H91.6082V101.392Z" fill="white"/>
<path d="M96.036 106.125H91.6082C91.5271 106.125 91.4492 106.093 91.3919 106.036C91.3345 105.978 91.3022 105.901 91.3022 105.819V101.392C91.3022 101.223 91.4393 101.086 91.6082 101.086H96.036C96.2049 101.086 96.342 101.223 96.342 101.392V105.819C96.342 105.988 96.2049 106.125 96.036 106.125ZM91.9142 105.513H95.7298V101.698H91.9142V105.513Z" fill="#231F20"/>
<path d="M91.6082 152.721H96.0359V157.149H91.6082V152.721Z" fill="white"/>
<path d="M96.036 157.455H91.6082C91.5271 157.455 91.4492 157.423 91.3919 157.365C91.3345 157.308 91.3022 157.23 91.3022 157.149V152.721C91.3022 152.552 91.4393 152.415 91.6082 152.415H96.036C96.2049 152.415 96.342 152.552 96.342 152.721V157.149C96.342 157.318 96.2049 157.455 96.036 157.455ZM91.9142 156.843H95.7298V153.027H91.9142V156.843ZM192.825 157.675C192.021 155.485 194.148 153.358 196.338 154.162L213.479 160.464L230.52 166.728C232.725 167.539 232.95 170.57 230.888 171.697L217.615 178.952L210.36 192.225C209.233 194.287 206.201 194.062 205.391 191.857L199.127 174.817L192.825 157.675Z" fill="#231F20"/>
<path d="M110.015 175.707H80.1157C79.9815 175.707 79.8486 175.733 79.7247 175.785C79.6007 175.836 79.4881 175.911 79.3932 176.006C79.2983 176.101 79.223 176.214 79.1717 176.338C79.1204 176.461 79.094 176.594 79.094 176.729V198.883C79.094 199.017 79.1204 199.15 79.1717 199.274C79.223 199.398 79.2983 199.511 79.3932 199.606C79.4881 199.701 79.6007 199.776 79.7247 199.827C79.8486 199.879 79.9815 199.905 80.1157 199.905H110.015C110.149 199.905 110.282 199.879 110.406 199.827C110.53 199.776 110.643 199.701 110.737 199.606C110.832 199.511 110.908 199.398 110.959 199.274C111.01 199.15 111.037 199.017 111.037 198.883V176.729C111.037 176.594 111.01 176.461 110.959 176.338C110.908 176.214 110.832 176.101 110.737 176.006C110.643 175.911 110.53 175.836 110.406 175.785C110.282 175.733 110.149 175.707 110.015 175.707Z" fill="white"/>
<path d="M110.015 200.211H80.1157C79.7637 200.211 79.4262 200.071 79.1773 199.822C78.9283 199.573 78.7883 199.236 78.7878 198.884V176.729C78.7883 176.377 78.9283 176.039 79.1773 175.79C79.4262 175.541 79.7637 175.401 80.1157 175.401H110.015C110.367 175.401 110.704 175.541 110.953 175.79C111.202 176.039 111.342 176.377 111.343 176.729V198.884C111.342 199.236 111.202 199.573 110.953 199.822C110.704 200.071 110.367 200.211 110.015 200.211ZM80.1157 176.013C79.9259 176.013 79.744 176.088 79.6098 176.223C79.4757 176.357 79.4002 176.539 79.4 176.729V198.884C79.4002 199.073 79.4757 199.255 79.6098 199.389C79.744 199.524 79.9259 199.599 80.1157 199.599H110.015C110.205 199.599 110.387 199.524 110.521 199.389C110.655 199.255 110.73 199.073 110.731 198.884V176.729C110.73 176.539 110.655 176.357 110.521 176.223C110.387 176.088 110.205 176.013 110.015 176.013H80.1157Z" fill="#231F20"/>
<path d="M86.186 182.691H99.1467V195.652H86.186V182.691Z" fill="#231F20"/>
<path d="M99.1468 195.958H86.1861C86.105 195.958 86.0271 195.926 85.9697 195.868C85.9124 195.811 85.8801 195.733 85.8801 195.652V182.691C85.8801 182.522 86.0172 182.385 86.1861 182.385H99.1468C99.3157 182.385 99.4528 182.522 99.4528 182.691V195.652C99.4528 195.821 99.3157 195.958 99.1468 195.958ZM86.4921 195.346H98.8408V182.997H86.4921V195.346Z" fill="#231F20"/>
<path d="M83.4546 179.96H96.4153V192.921H83.4546V179.96Z" fill="white"/>
<path d="M96.4153 193.227H83.4547C83.3735 193.227 83.2957 193.194 83.2383 193.137C83.1809 193.08 83.1487 193.002 83.1487 192.921V179.96C83.1487 179.791 83.2857 179.654 83.4547 179.654H96.4153C96.5843 179.654 96.7213 179.791 96.7213 179.96V192.921C96.7213 193.09 96.5843 193.227 96.4153 193.227ZM83.7606 192.615H96.1093V180.266H83.7606V192.615ZM102.669 179.96H106.676V183.966H102.669V179.96Z" fill="#231F20"/>
<path d="M106.676 184.272H102.67C102.589 184.272 102.511 184.24 102.453 184.183C102.396 184.125 102.364 184.047 102.364 183.966V179.96C102.364 179.791 102.501 179.654 102.67 179.654H106.676C106.845 179.654 106.982 179.791 106.982 179.96V183.966C106.982 184.135 106.845 184.272 106.676 184.272ZM102.976 183.66H106.37V180.266H102.976V183.66ZM102.67 185.803H106.676V189.809H102.67V185.803Z" fill="#231F20"/>
<path d="M106.676 190.115H102.67C102.589 190.115 102.511 190.083 102.453 190.025C102.396 189.968 102.364 189.89 102.364 189.809V185.803C102.364 185.634 102.501 185.497 102.67 185.497H106.676C106.845 185.497 106.982 185.634 106.982 185.803V189.809C106.982 189.978 106.845 190.115 106.676 190.115ZM102.976 189.503H106.37V186.109H102.976V189.503ZM102.67 191.646H106.676V195.652H102.67V191.646Z" fill="#231F20"/>
<path d="M106.676 195.958H102.67C102.589 195.958 102.511 195.926 102.453 195.868C102.396 195.811 102.364 195.733 102.364 195.652V191.646C102.364 191.477 102.501 191.34 102.67 191.34H106.676C106.845 191.34 106.982 191.477 106.982 191.646V195.652C106.982 195.821 106.845 195.958 106.676 195.958ZM102.976 195.346H106.37V191.952H102.976V195.346Z" fill="#231F20"/>
<path d="M1.59271 123.375H12.977C13.1112 123.374 13.244 123.401 13.368 123.452C13.492 123.504 13.6046 123.579 13.6995 123.674C13.7943 123.769 13.8696 123.881 13.9209 124.005C13.9723 124.129 13.9987 124.262 13.9986 124.396V191.754C13.9987 191.889 13.9723 192.021 13.9209 192.145C13.8696 192.269 13.7943 192.382 13.6995 192.477C13.6046 192.572 13.492 192.647 13.368 192.698C13.244 192.75 13.1112 192.776 12.977 192.776H1.59271C1.45853 192.776 1.32567 192.75 1.2017 192.698C1.07773 192.647 0.965092 192.572 0.870215 192.477C0.775338 192.382 0.700085 192.269 0.648752 192.145C0.597419 192.021 0.571015 191.889 0.571045 191.754V124.396C0.571015 124.262 0.597419 124.129 0.648752 124.005C0.700085 123.881 0.775338 123.769 0.870215 123.674C0.965092 123.579 1.07773 123.504 1.2017 123.452C1.32567 123.401 1.45853 123.374 1.59271 123.375Z" fill="white"/>
<path d="M12.977 193.082H1.59276C1.24074 193.082 0.903237 192.942 0.654298 192.693C0.405358 192.444 0.265315 192.106 0.264893 191.754V124.396C0.265315 124.044 0.405358 123.707 0.654298 123.458C0.903237 123.209 1.24074 123.069 1.59276 123.069H12.977C13.3291 123.069 13.6666 123.209 13.9155 123.458C14.1644 123.707 14.3045 124.044 14.3049 124.396V191.754C14.3045 192.106 14.1644 192.444 13.9155 192.693C13.6666 192.942 13.3291 193.082 12.977 193.082ZM1.59276 123.68C1.40298 123.681 1.22105 123.756 1.08688 123.89C0.952708 124.025 0.877253 124.207 0.877072 124.396V191.755C0.877253 191.944 0.952708 192.126 1.08688 192.261C1.22105 192.395 1.40298 192.47 1.59276 192.471H12.977C13.1668 192.47 13.3487 192.395 13.4829 192.261C13.6171 192.126 13.6925 191.944 13.6927 191.755V124.396C13.6925 124.206 13.6171 124.024 13.4829 123.89C13.3487 123.756 13.1668 123.68 12.977 123.68L1.59276 123.68Z" fill="#231F20"/>
<path d="M4.0188 126.465H10.8203V133.266H4.0188V126.465Z" fill="white"/>
<path d="M10.8203 133.572H4.01887C3.93772 133.572 3.85989 133.54 3.80251 133.483C3.74512 133.425 3.71289 133.348 3.71289 133.267V126.465C3.71289 126.296 3.84992 126.159 4.01887 126.159H10.8203C10.9893 126.159 11.1263 126.296 11.1263 126.465V133.267C11.1263 133.435 10.9893 133.572 10.8203 133.572ZM4.32484 132.961H10.5141V126.771H4.32484V132.961ZM4.01887 135.796H10.8203V142.597H4.01887V135.796Z" fill="#231F20"/>
<path d="M10.8203 142.903H4.01887C3.93772 142.903 3.85989 142.871 3.80251 142.813C3.74512 142.756 3.71289 142.678 3.71289 142.597V135.796C3.71289 135.627 3.84992 135.49 4.01887 135.49H10.8203C10.9893 135.49 11.1263 135.627 11.1263 135.796V142.597C11.1263 142.766 10.9893 142.903 10.8203 142.903ZM4.32484 142.291H10.5141V136.102H4.32484V142.291Z" fill="#231F20"/>
<path d="M4.0188 145.126H10.8203V151.928H4.0188V145.126Z" fill="white"/>
<path d="M10.8203 152.234H4.01887C3.93772 152.234 3.85989 152.202 3.80251 152.144C3.74512 152.087 3.71289 152.009 3.71289 151.928V145.126C3.71289 144.957 3.84992 144.82 4.01887 144.82H10.8203C10.9893 144.82 11.1263 144.957 11.1263 145.126V151.928C11.1263 152.097 10.9893 152.234 10.8203 152.234ZM4.32484 151.622H10.5141V145.433H4.32484V151.622ZM4.01887 154.457H10.8203V161.259H4.01887V154.457Z" fill="#231F20"/>
<path d="M10.8203 161.565H4.01887C3.93772 161.565 3.85989 161.532 3.80251 161.475C3.74512 161.418 3.71289 161.34 3.71289 161.259V154.457C3.71289 154.288 3.84992 154.151 4.01887 154.151H10.8203C10.9893 154.151 11.1263 154.288 11.1263 154.457V161.259C11.1263 161.428 10.9893 161.565 10.8203 161.565ZM4.32484 160.953H10.5141V154.763H4.32484V160.953ZM4.01887 163.788H10.8203V170.589H4.01887V163.788Z" fill="#231F20"/>
<path d="M10.8203 170.895H4.01887C3.93772 170.895 3.85989 170.863 3.80251 170.806C3.74512 170.748 3.71289 170.671 3.71289 170.589V163.788C3.71289 163.619 3.84992 163.482 4.01887 163.482H10.8203C10.9893 163.482 11.1263 163.619 11.1263 163.788V170.589C11.1263 170.758 10.9893 170.895 10.8203 170.895ZM4.32484 170.283H10.5141V164.094H4.32484V170.283Z" fill="#231F20"/>
<path d="M4.0188 173.119H10.8203V179.92H4.0188V173.119Z" fill="white"/>
<path d="M10.8203 180.226H4.01887C3.97868 180.226 3.9389 180.218 3.90177 180.203C3.86465 180.188 3.83092 180.165 3.80251 180.137C3.77409 180.108 3.75156 180.075 3.73618 180.037C3.7208 180 3.71289 179.96 3.71289 179.92V173.119C3.71289 172.95 3.84992 172.813 4.01887 172.813H10.8203C10.9893 172.813 11.1263 172.95 11.1263 173.119V179.92C11.1263 180.089 10.9893 180.226 10.8203 180.226ZM4.32484 179.614H10.5141V173.425H4.32484V179.614ZM4.01887 182.45H10.8203V189.251H4.01887V182.45Z" fill="#231F20"/>
<path d="M10.8203 189.557H4.01887C3.93772 189.557 3.85989 189.525 3.80251 189.467C3.74512 189.41 3.71289 189.332 3.71289 189.251V182.45C3.71289 182.281 3.84992 182.144 4.01887 182.144H10.8203C10.9893 182.144 11.1263 182.281 11.1263 182.45V189.251C11.1263 189.42 10.9893 189.557 10.8203 189.557ZM4.32484 188.945H10.5141V182.756H4.32484V188.945Z" fill="#231F20"/>
<path d="M263.429 44.3543V87.0338C263.429 87.168 263.403 87.3008 263.351 87.4248C263.3 87.5488 263.225 87.6614 263.13 87.7563C263.035 87.8512 262.922 87.9264 262.798 87.9778C262.674 88.0291 262.541 88.0555 262.407 88.0555H212.196C212.062 88.0555 211.929 88.0291 211.805 87.9778C211.681 87.9264 211.569 87.8512 211.474 87.7563C211.379 87.6614 211.304 87.5488 211.252 87.4248C211.201 87.3008 211.175 87.168 211.175 87.0338V44.3543C211.175 44.2201 211.201 44.0872 211.252 43.9632C211.304 43.8393 211.379 43.7266 211.474 43.6318C211.569 43.5369 211.681 43.4616 211.805 43.4103C211.929 43.359 212.062 43.3326 212.196 43.3326H262.407C262.541 43.3326 262.674 43.359 262.798 43.4103C262.922 43.4616 263.035 43.5369 263.13 43.6318C263.225 43.7266 263.3 43.8393 263.351 43.9632C263.403 44.0872 263.429 44.2201 263.429 44.3543Z" fill="white"/>
<path d="M262.407 88.3617H212.196C211.844 88.3613 211.507 88.2213 211.258 87.9724C211.009 87.7235 210.869 87.3861 210.868 87.034V44.3543C210.869 44.0022 211.009 43.6648 211.258 43.4159C211.507 43.167 211.844 43.027 212.196 43.0266H262.407C262.759 43.027 263.097 43.167 263.346 43.4159C263.595 43.6648 263.735 44.0022 263.735 44.3543V87.0338C263.735 87.3858 263.595 87.7233 263.346 87.9723C263.097 88.2212 262.759 88.3613 262.407 88.3617ZM212.196 43.6383C212.007 43.6386 211.825 43.7141 211.69 43.8483C211.556 43.9825 211.481 44.1645 211.481 44.3543V87.0338C211.481 87.2236 211.556 87.4055 211.69 87.5398C211.825 87.674 212.007 87.7495 212.196 87.7497H262.407C262.597 87.7495 262.779 87.674 262.913 87.5398C263.047 87.4055 263.123 87.2236 263.123 87.0338V44.3543C263.123 44.1645 263.047 43.9825 262.913 43.8483C262.779 43.7141 262.597 43.6386 262.407 43.6383H212.196Z" fill="#231F20"/>
<path d="M260.351 77.7013V84.5028H221.501V77.7015L260.351 77.7013Z" fill="white"/>
<path d="M260.351 84.8087H221.501C221.461 84.8087 221.421 84.8008 221.384 84.7855C221.347 84.7701 221.313 84.7475 221.285 84.7191C221.256 84.6907 221.234 84.657 221.218 84.6199C221.203 84.5827 221.195 84.543 221.195 84.5028V77.7013C221.195 77.5323 221.332 77.3953 221.501 77.3953H260.351C260.52 77.3953 260.657 77.5323 260.657 77.7013V84.5028C260.657 84.6717 260.52 84.8087 260.351 84.8087ZM221.807 84.1968H260.045V78.0073H221.807V84.1968Z" fill="#231F20"/>
<path d="M256.448 82.2718C257.169 82.2718 257.753 81.6878 257.753 80.9674C257.753 80.247 257.169 79.663 256.448 79.663C255.728 79.663 255.144 80.247 255.144 80.9674C255.144 81.6878 255.728 82.2718 256.448 82.2718Z" fill="white"/>
<path d="M256.448 82.5775C255.56 82.5775 254.838 81.8552 254.838 80.9674C254.838 80.0791 255.56 79.357 256.448 79.357C257.336 79.357 258.058 80.0793 258.058 80.9674C258.058 81.8552 257.336 82.5775 256.448 82.5775ZM256.448 79.9688C256.183 79.9691 255.93 80.0744 255.742 80.2616C255.555 80.4488 255.45 80.7027 255.45 80.9674C255.45 81.5178 255.897 81.9658 256.448 81.9658C256.999 81.9658 257.447 81.5178 257.447 80.9674C257.446 80.7027 257.341 80.4489 257.154 80.2617C256.967 80.0745 256.713 79.9692 256.448 79.9688ZM221.501 77.7013V84.5025H214.7V77.7013H221.501Z" fill="#231F20"/>
<path d="M221.501 84.8087H214.7C214.66 84.8087 214.62 84.8008 214.583 84.7855C214.546 84.7701 214.512 84.7475 214.483 84.7191C214.455 84.6907 214.432 84.657 214.417 84.6199C214.402 84.5827 214.394 84.543 214.394 84.5028V77.7013C214.394 77.5323 214.531 77.3953 214.7 77.3953H221.501C221.67 77.3953 221.807 77.5323 221.807 77.7013V84.5028C221.807 84.6717 221.67 84.8087 221.501 84.8087ZM215.006 84.1968H221.195V78.0073H215.006V84.1968Z" fill="#231F20"/>
<path d="M260.351 67.452V74.2535H221.501V67.4523L260.351 67.452Z" fill="white"/>
<path d="M260.351 74.5592H221.501C221.461 74.5592 221.421 74.5513 221.384 74.5359C221.347 74.5206 221.313 74.498 221.285 74.4696C221.256 74.4412 221.234 74.4075 221.218 74.3703C221.203 74.3332 221.195 74.2934 221.195 74.2533V67.4518C221.195 67.2828 221.332 67.1458 221.501 67.1458H260.351C260.52 67.1458 260.657 67.2828 260.657 67.4518V74.2533C260.657 74.4224 260.52 74.5592 260.351 74.5592ZM221.807 73.9475H260.045V67.758H221.807V73.9475Z" fill="#231F20"/>
<path d="M256.448 72.0225C257.169 72.0225 257.753 71.4385 257.753 70.7181C257.753 69.9978 257.169 69.4138 256.448 69.4138C255.728 69.4138 255.144 69.9978 255.144 70.7181C255.144 71.4385 255.728 72.0225 256.448 72.0225Z" fill="white"/>
<path d="M256.448 72.3285C255.56 72.3285 254.838 71.6062 254.838 70.7181C254.838 69.8301 255.56 69.108 256.448 69.108C257.336 69.108 258.058 69.8303 258.058 70.7181C258.058 71.1451 257.888 71.5545 257.586 71.8564C257.284 72.1583 256.875 72.3281 256.448 72.3285ZM256.448 69.7197C256.183 69.72 255.93 69.8253 255.742 70.0125C255.555 70.1996 255.45 70.4534 255.45 70.7181C255.45 71.2687 255.897 71.7168 256.448 71.7168C256.999 71.7168 257.447 71.2687 257.447 70.7181C257.446 70.4534 257.341 70.1997 257.154 70.0125C256.967 69.8254 256.713 69.7201 256.448 69.7197ZM221.501 67.452V74.2533H214.7V67.452H221.501Z" fill="#231F20"/>
<path d="M221.501 74.5592H214.7C214.66 74.5592 214.62 74.5513 214.583 74.5359C214.546 74.5206 214.512 74.498 214.483 74.4696C214.455 74.4412 214.432 74.4075 214.417 74.3703C214.402 74.3332 214.394 74.2934 214.394 74.2533V67.4518C214.394 67.2828 214.531 67.1458 214.7 67.1458H221.501C221.67 67.1458 221.807 67.2828 221.807 67.4518V74.2533C221.807 74.4224 221.67 74.5592 221.501 74.5592ZM215.006 73.9475H221.195V67.758H215.006V73.9475Z" fill="#231F20"/>
<path d="M260.351 57.2029V64.0042H221.501V57.2029H260.351Z" fill="white"/>
<path d="M260.351 64.3102H221.501C221.461 64.3102 221.421 64.3023 221.384 64.2869C221.347 64.2715 221.313 64.249 221.285 64.2206C221.256 64.1922 221.234 64.1584 221.218 64.1213C221.203 64.0842 221.195 64.0444 221.195 64.0042V57.2027C221.195 57.0338 221.332 56.8968 221.501 56.8968H260.351C260.52 56.8968 260.657 57.0338 260.657 57.2027V64.0042C260.657 64.1734 260.52 64.3102 260.351 64.3102ZM221.807 63.6985H260.045V57.5089H221.807V63.6985Z" fill="#231F20"/>
<path d="M256.448 61.7732C257.169 61.7732 257.753 61.1892 257.753 60.4688C257.753 59.7484 257.169 59.1644 256.448 59.1644C255.728 59.1644 255.144 59.7484 255.144 60.4688C255.144 61.1892 255.728 61.7732 256.448 61.7732Z" fill="white"/>
<path d="M256.448 62.0792C255.56 62.0792 254.838 61.3569 254.838 60.469C254.838 59.5808 255.56 58.8587 256.448 58.8587C257.336 58.8587 258.058 59.581 258.058 60.469C258.058 61.3569 257.336 62.0792 256.448 62.0792ZM256.448 59.4704C256.183 59.4707 255.93 59.576 255.742 59.7632C255.555 59.9505 255.45 60.2043 255.45 60.469C255.45 61.0194 255.897 61.4674 256.448 61.4674C256.999 61.4674 257.447 61.0194 257.447 60.469C257.446 60.2043 257.341 59.9506 257.154 59.7634C256.967 59.5762 256.713 59.4708 256.448 59.4704ZM221.501 57.2029V64.0042H214.7V57.2029H221.501Z" fill="#231F20"/>
<path d="M221.501 64.3102H214.7C214.66 64.3102 214.62 64.3023 214.583 64.2869C214.546 64.2715 214.512 64.249 214.483 64.2206C214.455 64.1922 214.432 64.1584 214.417 64.1213C214.402 64.0842 214.394 64.0444 214.394 64.0042V57.2027C214.394 57.0338 214.531 56.8968 214.7 56.8968H221.501C221.67 56.8968 221.807 57.0338 221.807 57.2027V64.0042C221.807 64.1734 221.67 64.3102 221.501 64.3102ZM215.006 63.6985H221.195V57.5089H215.006V63.6985Z" fill="#231F20"/>
<path d="M260.351 46.9537V53.7551H221.501V46.9537H260.351Z" fill="white"/>
<path d="M260.351 54.0609H221.501C221.461 54.0609 221.421 54.053 221.384 54.0376C221.347 54.0222 221.313 53.9997 221.285 53.9713C221.256 53.9429 221.234 53.9091 221.218 53.872C221.203 53.8349 221.195 53.7951 221.195 53.7549V46.9534C221.195 46.7845 221.332 46.6475 221.501 46.6475H260.351C260.52 46.6475 260.657 46.7845 260.657 46.9534V53.7549C260.657 53.9241 260.52 54.0609 260.351 54.0609ZM221.807 53.4492H260.045V47.2596H221.807V53.4492Z" fill="#231F20"/>
<path d="M256.448 51.5242C257.169 51.5242 257.753 50.9402 257.753 50.2198C257.753 49.4994 257.169 48.9154 256.448 48.9154C255.728 48.9154 255.144 49.4994 255.144 50.2198C255.144 50.9402 255.728 51.5242 256.448 51.5242Z" fill="white"/>
<path d="M256.448 51.8302C255.56 51.8302 254.838 51.1078 254.838 50.2198C254.838 49.3317 255.56 48.6097 256.448 48.6097C257.336 48.6097 258.058 49.332 258.058 50.2198C258.058 50.6468 257.888 51.0561 257.586 51.358C257.284 51.6599 256.875 51.8297 256.448 51.8302ZM256.448 49.2214C256.183 49.2217 255.93 49.327 255.742 49.5141C255.555 49.7013 255.45 49.9551 255.45 50.2198C255.45 50.7704 255.897 51.2184 256.448 51.2184C256.999 51.2184 257.447 50.7704 257.447 50.2198C257.446 49.9551 257.341 49.7014 257.154 49.5142C256.967 49.327 256.713 49.2217 256.448 49.2214ZM221.501 46.9535V53.7549H214.7V46.9537L221.501 46.9535Z" fill="#231F20"/>
<path d="M221.501 54.0609H214.7C214.66 54.0609 214.62 54.053 214.583 54.0376C214.546 54.0222 214.512 53.9997 214.483 53.9713C214.455 53.9429 214.432 53.9091 214.417 53.872C214.402 53.8349 214.394 53.7951 214.394 53.7549V46.9534C214.394 46.7845 214.531 46.6475 214.7 46.6475H221.501C221.67 46.6475 221.807 46.7845 221.807 46.9534V53.7549C221.807 53.9241 221.67 54.0609 221.501 54.0609ZM215.006 53.4492H221.195V47.2596H215.006V53.4492Z" fill="#231F20"/>
<path d="M114.782 9.24271H158.051C158.29 9.24271 158.52 9.33769 158.689 9.50676C158.858 9.67582 158.953 9.90512 158.953 10.1442V53.4136C158.953 53.6527 158.858 53.882 158.689 54.0511C158.52 54.2201 158.29 54.3151 158.051 54.3151H114.782C114.543 54.3151 114.313 54.2201 114.144 54.0511C113.975 53.882 113.88 53.6527 113.88 53.4136V10.144C113.88 9.90493 113.975 9.67569 114.144 9.50667C114.313 9.33766 114.543 9.24271 114.782 9.24271Z" fill="white"/>
<path d="M158.051 54.6209H114.782C114.462 54.6206 114.155 54.4933 113.928 54.2669C113.702 54.0406 113.575 53.7337 113.574 53.4136V10.144C113.575 9.82388 113.702 9.51699 113.928 9.29066C114.155 9.06432 114.462 8.93704 114.782 8.93674H158.051C158.371 8.93704 158.678 9.06432 158.905 9.29066C159.131 9.51699 159.258 9.82388 159.259 10.144V53.4136C159.258 53.7337 159.131 54.0406 158.905 54.2669C158.678 54.4932 158.371 54.6205 158.051 54.6209ZM114.782 9.54869C114.624 9.54887 114.473 9.61164 114.361 9.72324C114.249 9.83483 114.186 9.98614 114.186 10.144V53.4136C114.186 53.5715 114.249 53.7228 114.361 53.8344C114.472 53.946 114.624 54.0088 114.782 54.0089H158.051C158.209 54.0087 158.36 53.946 158.472 53.8344C158.584 53.7228 158.646 53.5714 158.647 53.4136V10.144C158.646 9.98616 158.584 9.83485 158.472 9.72325C158.36 9.61165 158.209 9.54887 158.051 9.54869H114.782Z" fill="#231F20"/>
<path d="M156.229 51.4601H116.604C116.523 51.4601 116.445 51.4279 116.387 51.3705C116.33 51.3131 116.298 51.2353 116.298 51.1541V12.4035C116.298 12.2345 116.435 12.0975 116.604 12.0975H156.229C156.398 12.0975 156.535 12.2345 156.535 12.4035V51.1541C156.535 51.1943 156.527 51.2341 156.512 51.2713C156.496 51.3084 156.474 51.3422 156.445 51.3706C156.417 51.399 156.383 51.4216 156.346 51.4369C156.309 51.4523 156.269 51.4602 156.229 51.4601ZM116.91 50.8482H155.923V12.7095H116.91V50.8482Z" fill="#231F20"/>
<path d="M140.792 36.3633H132.041C131.96 36.3633 131.882 36.3311 131.825 36.2737C131.768 36.2163 131.735 36.1385 131.735 36.0573V27.5003C131.735 27.3313 131.872 27.1943 132.041 27.1943H140.792C140.96 27.1943 141.097 27.3313 141.097 27.5003V36.0573C141.098 36.0975 141.09 36.1373 141.074 36.1745C141.059 36.2116 141.036 36.2454 141.008 36.2738C140.98 36.3022 140.946 36.3248 140.909 36.3401C140.872 36.3555 140.832 36.3634 140.792 36.3633ZM132.348 35.7513H140.486V27.806H132.348V35.7513Z" fill="#231F20"/>
<path d="M148.769 44.1643H124.064C123.983 44.1643 123.905 44.1321 123.848 44.0747C123.791 44.0173 123.758 43.9395 123.758 43.8583V19.6992C123.758 19.5303 123.895 19.3932 124.064 19.3932H148.769C148.937 19.3932 149.075 19.5303 149.075 19.6992V43.8583C149.075 44.0273 148.937 44.1643 148.769 44.1643ZM124.37 43.5524H148.462V20.0052H124.37V43.5524Z" fill="#231F20"/>
<path d="M116.604 51.4601C116.543 51.4602 116.483 51.4421 116.433 51.4082C116.382 51.3743 116.343 51.3261 116.32 51.2698C116.297 51.2134 116.292 51.1515 116.304 51.092C116.316 51.0324 116.346 50.9779 116.39 50.9355L131.827 35.8387C131.886 35.7852 131.963 35.7566 132.042 35.7589C132.122 35.7612 132.197 35.7941 132.252 35.8509C132.308 35.9076 132.339 35.9836 132.34 36.063C132.34 36.1423 132.31 36.2188 132.255 36.2762L116.818 51.373C116.761 51.4289 116.684 51.4602 116.604 51.4601ZM132.041 27.8062C131.964 27.8062 131.887 27.7773 131.827 27.7191L116.39 12.6223C116.361 12.5942 116.338 12.5608 116.322 12.5238C116.307 12.4869 116.298 12.4471 116.298 12.407C116.297 12.3668 116.305 12.3269 116.32 12.2896C116.335 12.2523 116.357 12.2183 116.385 12.1896C116.413 12.1609 116.447 12.138 116.484 12.1222C116.521 12.1064 116.56 12.098 116.6 12.0976C116.641 12.0971 116.681 12.1046 116.718 12.1196C116.755 12.1345 116.789 12.1567 116.818 12.1848L132.255 27.2816C132.299 27.3241 132.329 27.3786 132.341 27.4382C132.354 27.4978 132.348 27.5597 132.325 27.616C132.302 27.6723 132.263 27.7205 132.212 27.7544C132.162 27.7883 132.102 27.8064 132.041 27.8062ZM140.791 27.8062C140.731 27.8063 140.671 27.7882 140.621 27.7543C140.57 27.7204 140.531 27.6722 140.508 27.6159C140.485 27.5596 140.479 27.4977 140.492 27.4381C140.504 27.3786 140.534 27.3241 140.577 27.2816L156.015 12.1848C156.074 12.1314 156.151 12.1027 156.23 12.105C156.309 12.1073 156.385 12.1403 156.44 12.197C156.496 12.2537 156.527 12.3298 156.527 12.4091C156.528 12.4885 156.498 12.5649 156.443 12.6223L141.005 27.7191C140.948 27.7751 140.871 27.8064 140.791 27.8062ZM156.229 51.4601C156.152 51.4601 156.074 51.4311 156.015 51.373L140.577 36.2762C140.519 36.2195 140.486 36.142 140.485 36.0608C140.485 35.9797 140.516 35.9015 140.573 35.8435C140.629 35.7854 140.707 35.7523 140.788 35.7514C140.869 35.7505 140.947 35.7819 141.005 35.8387L156.443 50.9355C156.486 50.9779 156.516 51.0325 156.529 51.092C156.541 51.1516 156.535 51.2135 156.512 51.2699C156.489 51.3262 156.45 51.3744 156.4 51.4083C156.349 51.4422 156.29 51.4602 156.229 51.4601Z" fill="#231F20"/>
<path d="M28.8235 69.9475H71.3492C71.5676 69.9475 71.7772 70.0343 71.9317 70.1888C72.0861 70.3432 72.1729 70.5528 72.1729 70.7713V114.98C72.1729 115.089 72.1516 115.196 72.1102 115.296C72.0688 115.396 72.0082 115.486 71.9317 115.563C71.8552 115.639 71.7644 115.7 71.6644 115.742C71.5645 115.783 71.4573 115.804 71.3492 115.804H28.8235C28.7153 115.804 28.6082 115.783 28.5083 115.742C28.4083 115.7 28.3175 115.639 28.241 115.563C28.1645 115.486 28.1039 115.396 28.0625 115.296C28.0211 115.196 27.9998 115.089 27.9998 114.98V70.7713C27.9998 70.5528 28.0865 70.3432 28.241 70.1888C28.3955 70.0343 28.605 69.9475 28.8235 69.9475Z" fill="white"/>
<path d="M71.3492 116.11H28.8236C28.5241 116.11 28.2369 115.991 28.0252 115.779C27.8134 115.567 27.6942 115.28 27.6938 114.98V70.7712C27.6942 70.4718 27.8134 70.1846 28.0252 69.9729C28.2369 69.7611 28.5241 69.642 28.8236 69.6417H71.3492C71.6487 69.642 71.9359 69.7611 72.1477 69.9729C72.3595 70.1846 72.4786 70.4718 72.479 70.7712V114.98C72.4786 115.28 72.3595 115.567 72.1477 115.779C71.9359 115.991 71.6487 116.11 71.3492 116.11ZM28.8236 70.2535C28.6863 70.2536 28.5548 70.3083 28.4577 70.4053C28.3607 70.5024 28.3061 70.634 28.306 70.7712V114.98C28.3061 115.118 28.3607 115.249 28.4577 115.346C28.5548 115.443 28.6863 115.498 28.8236 115.498H71.3492C71.4865 115.498 71.6181 115.443 71.7152 115.346C71.8122 115.249 71.8668 115.118 71.867 114.98V70.7712C71.8668 70.634 71.8122 70.5024 71.7152 70.4053C71.6181 70.3082 71.4865 70.2536 71.3492 70.2535H28.8236Z" fill="#231F20"/>
<path d="M35.8008 113.029H31.2544C31.1916 113.029 31.1293 113.016 31.0712 112.992C31.0131 112.968 30.9603 112.933 30.9159 112.888C30.8714 112.844 30.8361 112.791 30.8121 112.733C30.788 112.675 30.7756 112.613 30.7756 112.55V108.269C30.7756 108.005 30.99 107.79 31.2544 107.79H35.8008C36.0652 107.79 36.2796 108.005 36.2796 108.269V112.55C36.2796 112.677 36.2291 112.798 36.1393 112.888C36.0495 112.978 35.9277 113.029 35.8008 113.029Z" fill="#231F20"/>
<path d="M35.8006 113.335H31.2543C31.0462 113.334 30.8467 113.252 30.6996 113.104C30.5525 112.957 30.4697 112.758 30.4695 112.55V108.269C30.4697 108.061 30.5525 107.862 30.6996 107.715C30.8467 107.567 31.0462 107.485 31.2543 107.484H35.8006C36.0086 107.485 36.2081 107.567 36.3552 107.715C36.5024 107.862 36.5851 108.061 36.5854 108.269V112.55C36.5851 112.758 36.5024 112.957 36.3552 113.104C36.2081 113.252 36.0086 113.334 35.8006 113.335ZM31.2543 108.096C31.2084 108.096 31.1645 108.114 31.1321 108.147C31.0997 108.179 31.0815 108.223 31.0814 108.269V112.55C31.0814 112.645 31.159 112.723 31.2543 112.723H35.8006C35.8464 112.722 35.8903 112.704 35.9227 112.672C35.9551 112.639 35.9733 112.595 35.9734 112.55V108.269C35.9733 108.223 35.9551 108.179 35.9227 108.147C35.8903 108.114 35.8464 108.096 35.8006 108.096H31.2543ZM44.0802 113.029H39.5338C39.4069 113.029 39.2851 112.978 39.1953 112.888C39.1055 112.799 39.055 112.677 39.055 112.55V108.269C39.055 108.005 39.2694 107.79 39.5338 107.79H44.0802C44.3446 107.79 44.559 108.005 44.559 108.269V112.55C44.559 112.677 44.5085 112.799 44.4187 112.888C44.3289 112.978 44.2072 113.029 44.0802 113.029Z" fill="#231F20"/>
<path d="M44.0801 113.335H39.5338C39.3257 113.334 39.1263 113.252 38.9791 113.104C38.832 112.957 38.7493 112.758 38.749 112.55V108.269C38.7493 108.061 38.832 107.862 38.9791 107.715C39.1263 107.567 39.3257 107.485 39.5338 107.484H44.0801C44.2882 107.485 44.4877 107.567 44.6348 107.715C44.7819 107.862 44.8647 108.061 44.8649 108.269V112.55C44.8647 112.758 44.7819 112.957 44.6348 113.104C44.4877 113.252 44.2882 113.334 44.0801 113.335ZM39.5338 108.096C39.488 108.096 39.444 108.114 39.4116 108.147C39.3793 108.179 39.361 108.223 39.361 108.269V112.55C39.361 112.645 39.4385 112.723 39.5338 112.723H44.0801C44.126 112.722 44.1699 112.704 44.2023 112.672C44.2347 112.639 44.2529 112.595 44.2529 112.55V108.269C44.2529 108.223 44.2347 108.179 44.2023 108.147C44.1699 108.114 44.126 108.096 44.0801 108.096H39.5338ZM52.3595 113.029H47.8132C47.6862 113.029 47.5644 112.978 47.4746 112.888C47.3848 112.799 47.3344 112.677 47.3344 112.55V108.269C47.3344 108.005 47.5487 107.79 47.8132 107.79H52.3595C52.624 107.79 52.8383 108.005 52.8383 108.269V112.55C52.8383 112.677 52.7878 112.799 52.698 112.888C52.6083 112.978 52.4865 113.029 52.3595 113.029Z" fill="#231F20"/>
<path d="M52.3599 113.335H47.8136C47.6055 113.334 47.4061 113.252 47.2589 113.104C47.1118 112.957 47.029 112.758 47.0288 112.55V108.269C47.029 108.061 47.1118 107.862 47.2589 107.715C47.4061 107.567 47.6055 107.485 47.8136 107.484H52.3599C52.568 107.485 52.7674 107.567 52.9146 107.715C53.0617 107.862 53.1444 108.061 53.1447 108.269V112.55C53.1444 112.758 53.0616 112.957 52.9145 113.104C52.7674 113.251 52.5679 113.334 52.3599 113.335ZM47.8134 108.096C47.7675 108.096 47.7236 108.114 47.6912 108.147C47.6588 108.179 47.6406 108.223 47.6405 108.269V112.55C47.6405 112.645 47.7181 112.723 47.8134 112.723H52.3597C52.4055 112.722 52.4493 112.704 52.4817 112.672C52.514 112.639 52.5322 112.595 52.5323 112.55V108.269C52.5322 108.223 52.514 108.179 52.4817 108.147C52.4493 108.114 52.4055 108.096 52.3597 108.096H47.8134ZM60.6393 113.029H56.0929C55.966 113.029 55.8442 112.978 55.7544 112.888C55.6646 112.799 55.6141 112.677 55.6141 112.55V108.269C55.6141 108.005 55.8285 107.79 56.0929 107.79H60.6393C60.9038 107.79 61.1181 108.005 61.1181 108.269V112.55C61.1181 112.677 61.0676 112.799 60.9778 112.888C60.888 112.978 60.7663 113.029 60.6393 113.029Z" fill="#231F20"/>
<path d="M60.6392 113.335H56.0929C55.8848 113.334 55.6853 113.252 55.5382 113.104C55.3911 112.957 55.3083 112.758 55.3081 112.55V108.269C55.3083 108.061 55.3911 107.862 55.5382 107.715C55.6853 107.567 55.8848 107.485 56.0929 107.484H60.6392C60.8473 107.485 61.0467 107.567 61.1939 107.715C61.341 107.862 61.4237 108.061 61.424 108.269V112.55C61.4237 112.758 61.341 112.957 61.1939 113.104C61.0467 113.252 60.8473 113.334 60.6392 113.335ZM56.0929 108.096C56.0471 108.096 56.0032 108.114 55.9709 108.147C55.9385 108.179 55.9203 108.223 55.9203 108.269V112.55C55.9203 112.645 55.9978 112.723 56.0929 112.723H60.6392C60.685 112.722 60.729 112.704 60.7614 112.672C60.7937 112.639 60.812 112.595 60.812 112.55V108.269C60.812 108.223 60.7937 108.179 60.7614 108.147C60.729 108.114 60.685 108.096 60.6392 108.096H56.0929ZM68.9188 113.029H64.3725C64.2455 113.029 64.1237 112.978 64.0339 112.888C63.9441 112.799 63.8937 112.677 63.8937 112.55V108.269C63.8937 108.005 64.108 107.79 64.3725 107.79H68.9188C69.1833 107.79 69.3976 108.005 69.3976 108.269V112.55C69.3976 112.677 69.3472 112.799 69.2574 112.888C69.1676 112.978 69.0458 113.029 68.9188 113.029Z" fill="#231F20"/>
<path d="M68.9185 113.335H64.3722C64.1641 113.334 63.9646 113.252 63.8175 113.104C63.6704 112.957 63.5876 112.758 63.5874 112.55V108.269C63.5876 108.061 63.6704 107.862 63.8175 107.715C63.9646 107.568 64.1641 107.485 64.3722 107.485H68.9185C69.1266 107.485 69.326 107.568 69.4731 107.715C69.6203 107.862 69.703 108.061 69.7033 108.269V112.55C69.7031 112.758 69.6203 112.957 69.4732 113.104C69.3261 113.252 69.1266 113.334 68.9185 113.335ZM64.3724 108.096C64.3266 108.096 64.2826 108.114 64.2502 108.147C64.2179 108.179 64.1996 108.223 64.1996 108.269V112.55C64.1996 112.645 64.2771 112.723 64.3724 112.723H68.9187C68.9646 112.722 69.0085 112.704 69.0409 112.672C69.0733 112.639 69.0915 112.595 69.0915 112.55V108.269C69.0915 108.223 69.0733 108.179 69.0409 108.147C69.0085 108.114 68.9646 108.096 68.9187 108.096H64.3724ZM69.3975 104.007H30.7755C30.6943 104.007 30.6165 103.975 30.5591 103.918C30.5017 103.86 30.4695 103.782 30.4695 103.701C30.4695 103.62 30.5017 103.542 30.5591 103.485C30.6165 103.428 30.6943 103.395 30.7755 103.395H69.3975C69.4787 103.395 69.5565 103.428 69.6139 103.485C69.6713 103.542 69.7035 103.62 69.7035 103.701C69.7035 103.782 69.6713 103.86 69.6139 103.918C69.5565 103.975 69.4787 104.007 69.3975 104.007ZM69.3975 101.001H30.7755C30.6943 101.001 30.6165 100.969 30.5591 100.911C30.5017 100.854 30.4695 100.776 30.4695 100.695C30.4695 100.614 30.5017 100.536 30.5591 100.479C30.6165 100.421 30.6943 100.389 30.7755 100.389H69.3975C69.4787 100.389 69.5565 100.421 69.6139 100.479C69.6713 100.536 69.7035 100.614 69.7035 100.695C69.7035 100.776 69.6713 100.854 69.6139 100.911C69.5565 100.969 69.4787 101.001 69.3975 101.001Z" fill="#231F20"/>
<path d="M58.3659 102.044C58.2848 102.044 58.2069 102.011 58.1495 101.954C58.0922 101.897 58.0599 101.819 58.0599 101.738V99.6518C58.0599 99.5706 58.0922 99.4928 58.1495 99.4354C58.2069 99.378 58.2848 99.3458 58.3659 99.3458C58.4471 99.3458 58.5249 99.378 58.5823 99.4354C58.6396 99.4928 58.6719 99.5706 58.6719 99.6518V101.738C58.6719 101.907 58.5349 102.044 58.3659 102.044ZM41.8069 105.05C41.7258 105.05 41.648 105.018 41.5906 104.961C41.5332 104.903 41.501 104.825 41.501 104.744V102.658C41.501 102.577 41.5332 102.499 41.5906 102.442C41.648 102.384 41.7258 102.352 41.8069 102.352C41.8881 102.352 41.9659 102.384 42.0233 102.442C42.0807 102.499 42.1129 102.577 42.1129 102.658V104.744C42.1129 104.913 41.9759 105.05 41.8069 105.05Z" fill="#231F20"/>
<path d="M69.2178 72.8214H31.0948C31.0102 72.8214 30.929 72.8551 30.8691 72.9149C30.8093 72.9748 30.7756 73.056 30.7756 73.1406V96.3513C30.7756 96.4359 30.8093 96.5171 30.8691 96.577C30.929 96.6368 31.0102 96.6705 31.0948 96.6705H69.2178C69.3025 96.6705 69.3836 96.6368 69.4435 96.577C69.5034 96.5171 69.537 96.4359 69.537 96.3513V73.1406C69.537 73.056 69.5034 72.9748 69.4435 72.9149C69.3836 72.8551 69.3025 72.8214 69.2178 72.8214Z" fill="white"/>
<path d="M69.2176 96.9764H31.0947C30.9289 96.9763 30.77 96.9104 30.6528 96.7933C30.5356 96.6761 30.4697 96.5172 30.4695 96.3515V73.1406C30.4697 72.9749 30.5356 72.816 30.6528 72.6988C30.77 72.5817 30.9289 72.5158 31.0947 72.5157H69.2176C69.3834 72.5158 69.5423 72.5817 69.6595 72.6988C69.7767 72.816 69.8426 72.9749 69.8428 73.1406V96.3515C69.8426 96.5172 69.7766 96.6761 69.6594 96.7932C69.5422 96.9104 69.3833 96.9763 69.2176 96.9764ZM31.0947 73.1274L31.0814 96.3513L69.2176 96.3645L69.2308 73.1406L69.2176 73.1274H31.0947Z" fill="#231F20"/>
</svg>
